<svg xmlns="http://www.w3.org/2000/svg" xmlns:xlink="http://www.w3.org/1999/xlink" enable-background="new 0 0 500 500" viewBox="0 0 500 500" width="550" height="550"><rect width="184.59" height="184.59" x="156.99" y="177.8" fill="#e4e3ff" class="colore4e3ff svgShape"></rect><rect width="42.03" height="42.03" x="206.85" y="75.24" fill="#e4e3ff" class="colore4e3ff svgShape"></rect><rect width="42.03" height="42.03" x="349.97" y="218.91" fill="#e4e3ff" class="colore4e3ff svgShape"></rect><rect width="14.89" height="14.89" x="381.92" y="271.06" fill="none" stroke="#e5e1f9" stroke-miterlimit="10" stroke-width="1.451" class="colorStrokee5e1f9 svgStroke"></rect><rect width="14.89" height="14.89" x="92.95" y="140.5" fill="none" stroke="#e5e1f9" stroke-miterlimit="10" stroke-width="1.451" class="colorStrokee5e1f9 svgStroke"></rect><path fill="#7563fb" d="M360.98,137.17v157.45c0,7.19-5.82,13.01-13.01,13.01h-205.7c-7.19,0-13.01-5.82-13.01-13.01V137.17						c0-7.19,5.82-13.01,13.01-13.01h205.7C355.15,124.15,360.98,129.98,360.98,137.17z" class="color7563fb svgShape"></path><path fill="#491b93" d="M360.98,137.17v12.58H129.25v-12.58c0-7.19,5.83-13.01,13.01-13.01h205.7
						C355.15,124.15,360.98,129.98,360.98,137.17z" class="color491b93 svgShape"></path><path fill="#bbb5f9" d="M286.99,184.85v135.82c0,6.2-5.02,11.22-11.22,11.22H98.33c-6.2,0-11.22-5.02-11.22-11.22V184.85
						c0-6.2,5.02-11.22,11.22-11.22h177.43C281.96,173.63,286.99,178.65,286.99,184.85z" class="colorbbb5f9 svgShape"></path><path fill="#461d93" d="M286.99,184.86v10.85H87.11v-10.85c0-6.2,5.03-11.23,11.23-11.23h177.43
						C281.96,173.63,286.99,178.66,286.99,184.86z" class="color461d93 svgShape"></path><defs><rect id="a" width="79.6" height="64.19" x="136.48" y="369.66" transform="rotate(-180 176.285 401.757)" fill="#000000" class="color000 svgShape"></rect></defs><clipPath id="b"><use overflow="visible" xlink:href="#a"></use></clipPath><g clip-path="url(#b)" fill="#000000" class="color000 svgShape"><path fill="#e4e3ff" d="M146.34,400.52c-2.28,5.66,12.53,12.14,14.04,20.17c1.51,8.03-10.9-1.99-11.32,6.04
						c-0.24,4.62,4.71,13.1,12.69,18.16c9.44,5.97,21.99,3.12,28.29-6.11c6.48-9.48,15.67-28.76,9.27-34.35
						c-5.49-4.79-11.29,11.73-19.44,5.52c-5.92-4.52,8.87-11.9,4.28-17.22c-5.09-5.88-11.35,6.58-15,0.37s0.26-17.97-6.16-17.54
						s-5.37,10.16-4.37,16.46c1,6.31,1.72,8.15-0.25,8.3C156.4,400.49,148.61,394.86,146.34,400.52" class="colore4e3ff svgShape"></path><polygon fill="#e4e3ff" points="155.61 429.38 173.6 437.2 169.08 416.23 169.07 416.25 156.23 406.61 168.7 414.46 163.42 389.97 167.21 404.15 175.36 398.43 167.56 405.48 173.34 427.12 191.18 415.76 173.68 428.39 177.47 442.59 174.89 443.22 173.93 438.73" class="colore4e3ff svgShape"></polygon><path fill="#602ca2" d="M183.32,394.05c0.82-3.7,2.14-5.59,2.41-5.95c-0.28-2.97-0.68-10.86,2.84-10.15
					c3.56,0.72-0.5,7.82-2.07,10.33c0,0.09-0.02,0.19-0.08,0.27c-0.02,0.03-1.45,1.87-2.31,5.76c1.73-2.51,6.4-8.68,8.63-5.9
					c2.47,3.08-6.79,6.18-8.81,6.81c-0.26,1.44-0.44,3.13-0.46,5.07c0,0.64,0.01,1.31,0.05,2.03c1.63-2.31,6.62-8.88,8.87-5.98
					c2.39,3.07-6.64,5.99-8.83,6.64c0.17,2.45,0.59,5.34,1.44,8.68c1.45-2.09,6.68-9.2,9.01-6.21c2.42,3.1-6.83,6.06-8.89,6.68
					c0.6,2.3,1.41,4.81,2.46,7.54c1.21-2.2,5.73-9.85,8.35-7.1c2.72,2.85-6.2,6.73-8.18,7.54c0.84,2.14,1.83,4.41,3,6.81
					c1-2.06,5.24-10.31,8.05-7.64c2.9,2.75-6.15,7.17-7.89,7.98c1.06,2.17,2.27,4.44,3.64,6.82c1.01-2.09,5.24-10.28,8.04-7.62
					c2.88,2.73-6.02,7.1-7.85,7.96c0.89,1.55,1.85,3.13,2.88,4.77c0.11,0.17,0.07,0.39-0.07,0.52c-0.02,0.02-0.04,0.03-0.06,0.04
					c-0.19,0.12-0.45,0.06-0.57-0.13c-1.03-1.64-1.99-3.23-2.89-4.77c-1.78,0.28-11.71,1.68-11.08-2.3
					c0.61-3.81,8.78,0.69,10.84,1.89c-1.39-2.42-2.61-4.73-3.69-6.94c-2.51,0.37-11.28,1.39-10.69-2.36
					c0.57-3.54,7.65,0.09,10.31,1.58c-1.05-2.18-1.94-4.25-2.72-6.22c-2.15-0.43-11.36-2.46-9.47-5.89c1.71-3.1,7.04,2.54,9.09,4.9
					c-0.98-2.58-1.73-4.97-2.31-7.17c-2.13-0.77-10.82-4.13-8.45-7.22c2.11-2.76,6.41,3.31,8.16,6.04
					c-0.74-3.09-1.13-5.79-1.29-8.11c-2-1.34-9.41-6.57-6.42-8.97c2.59-2.08,5.2,4.17,6.34,7.4c-0.01-0.45-0.02-0.88-0.01-1.3
					c0.02-1.91,0.19-3.56,0.44-4.99c-1.47-1.55-7.87-8.61-4.33-10.31C181.92,383.38,183,390.88,183.32,394.05z" class="color602ca2 svgShape"></path></g><rect width="156.9" height=".54" x="251.5" y="433.85" fill="#602ca2" class="color602ca2 svgShape"></rect><rect width="157.79" height=".54" x="89.32" y="433.85" fill="#602ca2" class="color602ca2 svgShape"></rect><path fill="#e8c4b3" d="M324.93,295.53c0.23,0.5,0.9,0.46,1.91-0.04c0.02-0.01,0.02-0.01,0.02-0.01
							c0.94-0.45,2.17-1.28,3.58-2.38c1.76-1.35,3.84-3.13,6.05-5.16c10.2-9.32,23.35-23.68,23.03-25.2
							c-0.47-2.2-0.07-4.09-4.93-3.64c-0.85,0.08-1.65,0.46-2.22,1.09c-2.99,3.21-13.43,14.5-20.54,23.55
							c-1.48,1.88-2.83,3.67-3.93,5.26C325.74,292.16,324.51,294.57,324.93,295.53z" class="colore8c4b3 svgShape"></path><path fill="#e8c4b3" d="M316.89 298.23c.04.06.08.09.12.13l2.19 1.03c.3.29 1.57.38 1.98.26l1.83-.39c1.67-.49 3.25-1.3 4.59-2.39l2.72-2.98.59-.63-.69-.91-2.14-2.79-.47-.64-.02-.01-.38-.04-2.72-.23c-.81-.06-1.6.06-2.34.37l-2.83 2.14c0 0 .63.51 1.76.25.51-.12 1.26 0 1.93.16l-1.72.99-4.05 2.76C316.27 295.97 316.12 297.36 316.89 298.23zM342.35 226.2c2.05-.11 1.9-2.62 2.91-.85 4.52 7.96 19.22 34.89 13.52 38.48-6.7 4.22-18.31-20.41-20.75-27.94C335.99 229.62 337.38 226.47 342.35 226.2z" class="colore8c4b3 svgShape"></path><path fill="#e8c4b3" d="M344.68,251.74c0,0,4.65,8.25,4.7,9.24c0.06,0.99-21.78,27.94-21.78,27.94l3.31,4.35
						c0,0,29.56-23.35,30.61-30.58c1.05-7.23-7.78-21.93-7.78-21.93L344.68,251.74z" class="colore8c4b3 svgShape"></path><path fill="#e14c72" d="M336.25,232.07c0,2.33,0.59,4.59,1.62,6.68c0.88,1.9,2.23,4.75,3.65,7.79c0.01,0.04,0.02,0.09,0.04,0.11
						c0.15,0.35,0.32,0.69,0.48,1.04c0.49,1.06,1.01,2.15,1.54,3.22c0.23,0.48,0.47,0.96,0.7,1.44l0.39-0.26l6.7-4.26l5.62-3.58
						c-4.18-9.43-7.74-15.09-9.97-18.54c-1.51-2.35-4.58-3.05-6.87-1.57C338.17,225.4,336.26,227.76,336.25,232.07z" class="colore14c72 svgShape"></path><path fill="#e4e3ff" d="M344.68,252.09l6.7-4.26l-2.96-12.6C348.42,235.23,346.11,245.68,344.68,252.09z" class="colore4e3ff svgShape"></path><path fill="#dbe7ee" d="M342.04,247.68c1.31,2.79,2.77,5.74,3.95,8.16c0.85,1.73,1.56,3.2,2,4.13l0.43-24.76
						C348.42,235.22,345.17,241.53,342.04,247.68z" class="colordbe7ee svgShape"></path><path fill="#e8c4b3" d="M335.55,223.98l-0.26-6.24c0,0,9.34-15.18,1.79-19.16c-7.55-3.98-14.7,2.19-14.7,9.09s0.55,8.59,3.72,9
					l-0.63,5.62" class="colore8c4b3 svgShape"></path><path fill="#461d93" d="M328.22,207.46c0,0-5.33-1.91-6.86-3.69s-2.53-11.51,3-11.78s7.51,3.18,11.33,3.41
					c3.82,0.24,5.84,2.73,5.26,7.99c-0.58,5.26-5.05,14.27-5.66,14.35c-1.4,0.18-5.4,0.06-5.67-4.24
					C329.35,209.2,328.8,208.38,328.22,207.46z" class="color461d93 svgShape"></path><path fill="#e8c4b3" d="M317.22,293.29c4.74,0.49,8.13,5.17,7.41,10.14c-0.57,3.96-1.89,9.14-4.69,15.4
					c-6.99,15.63-11.04,35.67-17.73,36.68c-6.69,1.01-9.03-10.78-5.1-27.08c3.55-14.73,4-33.24,8.76-34.93
					C308.28,292.64,313.08,292.86,317.22,293.29z" class="colore8c4b3 svgShape"></path><path fill="#e8c4b3" d="M309.38 356.89c0 0-.31 23.72-6.18 57.75l-10.18-.72c0 0-.62-44.93 1.67-58.83C296.97 341.18 309.38 356.89 309.38 356.89zM334.34 292.76c4.71-.68 9.14 3.04 9.65 8.04.41 3.98.39 9.32-.81 16.08-2.99 16.86-2.04 37.28-8.28 39.88-6.24 2.6-11.38-8.26-11.53-25.03-.14-15.15-4.19-33.22.01-36.01C325.51 294.31 330.21 293.36 334.34 292.76z" class="colore8c4b3 svgShape"></path><path fill="#e8c4b3" d="M342.73,358.51c0,0,5.69,31.02,5.35,54.65l-9.77,0.75c0,0-10.23-46.81-10.76-55.26
					S342.73,358.51,342.73,358.51z" class="colore8c4b3 svgShape"></path><path fill="#e8c4b3" d="M329.95,352.49c10.91-10.4,18.57,50.17,17.62,66.95c-0.95,16.78-6.45,3.82-12.48-21.92
						C329.05,371.78,325.66,356.58,329.95,352.49z" class="colore8c4b3 svgShape"></path><polygon fill="#e8c4b3" points="303.19 414.63 302.41 422.81 292.87 422.81 293.01 413.92" class="colore8c4b3 svgShape"></polygon><polygon fill="#e8c4b3" points="348.08 413.16 348.92 421.3 339.49 422.72 338.31 413.91" class="colore8c4b3 svgShape"></polygon><path fill="#461d93" d="M302.58 433.12v-12.06c0 0-3.76 1.48-9.71-.41 0 0-4.39 4.6-8.58 5.01-4.19.41-6.38 2.25-6.44 4.7C277.75 434.76 302.58 433.12 302.58 433.12zM348.82 420.09c0 0-7.02 1.64-9.56.94 0 0-.56 3.83-.93 5.23-.37 1.41-.63 2.37-2.97 3.39-2.63 1.15-2.63 4.75-.06 4.61 2.57-.14 15.32-2.31 15.32-2.31L348.82 420.09z" class="color461d93 svgShape"></path><path fill="#57229d" d="M303.44,291.3c0,0-11.38,48.09-11.62,61.57s0,62.03,0,62.03l13.07,0.35l7.38-63.08
					c0,0,16.84-50.18,17.54-56.46S303.44,291.3,303.44,291.3z" class="color57229d svgShape"></path><path fill="#57229d" d="M348.23,296.98c0,0,0.39,3.96-0.3,13.02c-0.7,9.06-2.44,41.01-2.21,43.79c0.23,2.79,3.95,61.8,3.95,61.8
					l-13.24,1.86c0,0-10.69-55.53-12.08-62.96c-1.39-7.43-1.86-59.94-1.86-59.94L348.23,296.98z" class="color57229d svgShape"></path><path fill="#e14c72" d="M302.55,291.35c0,0,14.1,8.24,29.81,8.57c5.27,0.12,10.71-0.67,15.87-2.94c0,0-0.43-25.12,0.23-38.53
					c0.63-13.44,2.09-31.6-3.41-35.16c-2.31-1.51-6.76-1.86-9.58-1.94c-0.68-0.01-1.72,0.57-3.9,0.56
					c-3.49-0.02-5.79-0.78-5.79-0.78c-5.02,0.04-15.3,1.16-17.42,10.48c-0.16,0.79-0.28,1.62-0.33,2.53
					c-0.02,0.19-0.04,0.38-0.04,0.59v0.15c-0.01,0.44-0.02,0.9-0.04,1.37c-0.01,0.46-0.02,0.95-0.02,1.43
					c-0.02,0.75-0.05,1.56-0.07,2.38c-0.01,0.53-0.02,1.07-0.04,1.62c-0.06,2.59-0.12,5.36-0.22,8.23
					C307.16,264.54,306.13,281.81,302.55,291.35z" class="colore14c72 svgShape"></path><path fill="#c3d3dd" d="M302.49,291.37c0.04-0.03,0.06-0.03,0.06-0.03c0.03-0.09,0.07-0.18,0.1-0.28
					C302.59,291.17,302.54,291.27,302.49,291.37z" opacity=".5" class="colorc3d3dd svgShape"></path><path fill="#e8c4b3" d="M252.97,257.93c-0.27,0.48,0.16,1,1.16,1.51c0.02,0.01,0.02,0.01,0.02,0.01
							c0.92,0.49,2.32,0.99,4.04,1.47c2.14,0.62,4.8,1.23,7.75,1.81c13.55,2.67,32.92,4.73,33.95,3.57c1.5-1.68,3.25-2.49,0-6.13
							c-0.57-0.64-1.35-1.05-2.2-1.14c-4.36-0.5-19.64-2.19-31.14-2.54c-2.39-0.08-4.64-0.1-6.57-0.04
							C256.16,256.59,253.49,257.02,252.97,257.93z" class="colore8c4b3 svgShape"></path><path fill="#e8c4b3" d="M248.52 256.2c-.77 2.53 1.16 3.39 1.16 3.39 1.14.86 3.41 1.09 4.77 1.48.19.05.39.09.58.11l3.23.34.75.09.28-.96.85-2.96.21-.66 0-.02-.17-.29-1.25-2.04c-.38-.61-.88-1.1-1.48-1.46l-2.98-.88c0 0-.03.7.74 1.37.35.3.66.89.89 1.45l-1.59-.7-1.77-.52C251.77 253.58 249.25 253.77 248.52 256.2zM319.09 230.77c1.31 1.58 3.24-.03 2.41 1.84-3.72 8.37-16.66 36.19-22.93 33.73-7.37-2.89 5.55-26.85 10.15-33.29C312.57 227.69 315.93 226.94 319.09 230.77z" class="colore8c4b3 svgShape"></path><path fill="#e8c4b3" d="M302.92,242l-7.16,13.56l-35.79,0.9l-0.96,5.15c0,0,21.3,4.62,29.74,5.19
						c8.44,0.57,10.09,1.31,13.75-0.55s12.91-18.38,12.91-18.38L302.92,242z" class="colore8c4b3 svgShape"></path><path fill="#e14c72" d="M302.22,242.02l12.97,7.23c3.4-5.23,6.45-10.57,7.6-13.62c0.97-2.58-0.78-6.87-3.36-7.83
						c-2.19-0.86-6.44-4.58-9.01-1.13C306.72,231.62,303.32,239.91,302.22,242.02z" class="colore14c72 svgShape"></path><path fill="#ffffff" d="M335.45 220.45l.65.94c0 0-2.52 1.17-5.54.86s-4.41-.64-5.73-1.25l.87-.84C325.7 220.16 331.32 221.79 335.45 220.45zM231.6 249.69h-5.27c-.93-4.11-2.51-7.97-4.61-11.49l0 0 3.88-3.88c1.37-1.37 1.37-3.6 0-4.97l-8.5-8.5c-1.37-1.37-3.6-1.37-4.97 0l-3.73 3.73c-3.47-2.18-7.31-3.84-11.39-4.88v-5.48c0-1.94-1.57-3.51-3.51-3.51h-12.02c-1.94 0-3.51 1.57-3.51 3.51v5.28c-4.11.93-7.97 2.51-11.5 4.6l0 0-3.88-3.88c-1.37-1.37-3.6-1.37-4.97 0l-8.5 8.5c-1.37 1.37-1.37 3.6 0 4.97l3.74 3.74c-2.19 3.47-3.84 7.3-4.88 11.38h-5.49c-1.94 0-3.51 1.57-3.51 3.51v12.02c0 1.94 1.57 3.51 3.51 3.51h5.29c.92 4.1 2.5 7.97 4.6 11.49l-3.89 3.89c-1.37 1.37-1.37 3.6 0 4.97l8.5 8.5c1.37 1.37 3.6 1.37 4.97 0l3.73-3.73c0 0 0 0 0 0 3.47 2.18 7.3 3.84 11.38 4.88 0 0 0 0 0 0v5.48c0 1.94 1.57 3.51 3.51 3.51h12.02c1.94 0 3.51-1.57 3.51-3.51v-5.28c0 0 0 0 0 0 4.11-.93 7.97-2.5 11.48-4.6 0 0 0 0 .01 0l3.88 3.88c1.37 1.37 3.6 1.37 4.97 0l8.5-8.5c1.37-1.37 1.37-3.6 0-4.97l-3.74-3.74c0 0 0 0 0 0 2.19-3.47 3.85-7.3 4.89-11.38h5.47c1.94 0 3.51-1.57 3.51-3.51V253.2C235.12 251.26 233.54 249.69 231.6 249.69zM187.04 281.14c-12.35 0-22.37-10.01-22.37-22.37 0-12.36 10.02-22.37 22.37-22.37 12.36 0 22.38 10.01 22.38 22.37C209.42 271.13 199.4 281.14 187.04 281.14z" class="colorfff svgShape"></path><circle cx="187.05" cy="258.77" r="12.35" fill="#ffffff" class="colorfff svgShape"></circle><path fill="#e14c72" d="M260.23,368.14h-48.28c-1.02,0-1.85-0.83-1.85-1.85v-19.75c0-1.02,0.83-1.85,1.85-1.85h48.28
				c1.02,0,1.85,0.83,1.85,1.85v19.75C262.08,367.31,261.25,368.14,260.23,368.14z" class="colore14c72 svgShape"></path><text fill="#fff" font-family="Poppins-Bold" font-size="14.808" transform="translate(221.681 361.408)">PHP</text><g fill="#000000" class="color000 svgShape"><path fill="#e14c72" d="M428.35,234.31h-53.12c-1.07,0-1.94-0.87-1.94-1.94v-19.58c0-1.07,0.87-1.94,1.94-1.94h53.12
				c1.07,0,1.94,0.87,1.94,1.94v19.58C430.29,233.44,429.42,234.31,428.35,234.31z" class="colore14c72 svgShape"></path><text fill="#fff" font-family="Poppins-Bold" font-size="14.808" transform="translate(382.284 227.573)">JAVA</text></g><g fill="#000000" class="color000 svgShape"><path fill="#e14c72" d="M176.61,115.63h-63.8c-1.17,0-2.12-0.95-2.12-2.12V94.3c0-1.17,0.95-2.12,2.12-2.12h63.8
				c1.17,0,2.12,0.95,2.12,2.12v19.22C178.73,114.69,177.78,115.63,176.61,115.63z" class="colore14c72 svgShape"></path><text fill="#fff" font-family="Poppins-Bold" font-size="14.808" transform="translate(119.683 108.898)">PYTON</text></g><g fill="#000000" class="color000 svgShape"><rect width="33.41" height="29.75" x="313.55" y="61.68" fill="#e4e3ff" class="colore4e3ff svgShape"></rect><path fill="#ffffff" d="M324.98 82.64l-6.12-4.26v-2.52l6.12-4.28v2.83l-3.8 2.7 3.8 2.73V82.64zM326.96 84.55l4.87-15.99h1.77l-4.87 15.99H326.96zM335.53 82.64v-2.81l3.8-2.73-3.8-2.7v-2.83l6.12 4.28v2.52L335.53 82.64z" class="colorfff svgShape"></path></g><g fill="#000000" class="color000 svgShape"><rect width="33.41" height="29.75" x="112.9" y="342.22" fill="#e4e3ff" class="colore4e3ff svgShape"></rect><path fill="#ffffff" d="M124.32 363.18l-6.12-4.26v-2.52l6.12-4.28v2.83l-3.8 2.7 3.8 2.73V363.18zM126.3 365.09l4.87-15.99h1.77l-4.87 15.99H126.3zM134.88 363.18v-2.81l3.8-2.73-3.8-2.7v-2.83l6.12 4.28v2.52L134.88 363.18z" class="colorfff svgShape"></path></g><g fill="#000000" class="color000 svgShape"><path fill="#57229d" d="M276.94,166.9h110.64c1.43,0,2.58-1.16,2.58-2.58v-59.76c0-1.43-1.16-2.58-2.58-2.58H276.94
					c-1.43,0-2.58,1.16-2.58,2.58v59.76C274.36,165.74,275.52,166.9,276.94,166.9z" class="color57229d svgShape"></path><linearGradient id="c" x1="467.111" x2="467.111" y1="108.465" y2="154.842" gradientTransform="translate(-163.59)" gradientUnits="userSpaceOnUse"><stop offset="0" stop-color="#9d9cf9" class="stopColor9d9cf9 svgShape"></stop><stop offset="1" stop-color="#8c83fb" class="stopColor8c83fb svgShape"></stop></linearGradient><rect width="27.88" height="1.97" x="289.58" y="109.49" fill="url(#c)"></rect><rect width="8.6" height="1.97" x="320.74" y="109.49" fill="#e14c72" opacity=".5" class="colore14c72 svgShape"></rect><linearGradient id="d" x1="447.882" x2="447.882" y1="108.465" y2="154.842" gradientTransform="translate(-163.59)" gradientUnits="userSpaceOnUse"><stop offset="0" stop-color="#9d9cf9" class="stopColor9d9cf9 svgShape"></stop><stop offset="1" stop-color="#8c83fb" class="stopColor8c83fb svgShape"></stop></linearGradient><rect width="2.36" height="1.97" x="283.11" y="109.49" fill="url(#d)"></rect><linearGradient id="e" x1="525.404" x2="525.404" y1="108.465" y2="154.842" gradientTransform="translate(-163.59)" gradientUnits="userSpaceOnUse"><stop offset="0" stop-color="#9d9cf9" class="stopColor9d9cf9 svgShape"></stop><stop offset="1" stop-color="#8c83fb" class="stopColor8c83fb svgShape"></stop></linearGradient><rect width="11.79" height="1.97" x="355.92" y="109.49" fill="url(#e)"></rect><linearGradient id="f" x1="507.017" x2="507.017" y1="108.465" y2="154.842" gradientTransform="translate(-163.59)" gradientUnits="userSpaceOnUse"><stop offset="0" stop-color="#9d9cf9" class="stopColor9d9cf9 svgShape"></stop><stop offset="1" stop-color="#8c83fb" class="stopColor8c83fb svgShape"></stop></linearGradient><rect width="19.91" height="1.97" x="333.47" y="109.49" fill="url(#f)"></rect><linearGradient id="g" x1="473.052" x2="473.052" y1="108.465" y2="154.842" gradientTransform="translate(-163.59)" gradientUnits="userSpaceOnUse"><stop offset="0" stop-color="#9d9cf9" class="stopColor9d9cf9 svgShape"></stop><stop offset="1" stop-color="#8c83fb" class="stopColor8c83fb svgShape"></stop></linearGradient><polygon fill="url(#g)" points="322.44 146.71 320.74 146.71 289.58 146.71 289.58 148.67 320.74 148.67 322.44 148.67 329.34 148.67 329.34 146.71"></polygon><linearGradient id="h" x1="447.882" x2="447.882" y1="108.465" y2="154.842" gradientTransform="translate(-163.59)" gradientUnits="userSpaceOnUse"><stop offset="0" stop-color="#9d9cf9" class="stopColor9d9cf9 svgShape"></stop><stop offset="1" stop-color="#8c83fb" class="stopColor8c83fb svgShape"></stop></linearGradient><rect width="2.36" height="1.97" x="283.11" y="146.71" fill="url(#h)"></rect><linearGradient id="i" x1="522.759" x2="522.759" y1="108.465" y2="154.842" gradientTransform="translate(-163.59)" gradientUnits="userSpaceOnUse"><stop offset="0" stop-color="#9d9cf9" class="stopColor9d9cf9 svgShape"></stop><stop offset="1" stop-color="#8c83fb" class="stopColor8c83fb svgShape"></stop></linearGradient><rect width="6.5" height="1.97" x="355.92" y="146.71" fill="url(#i)"></rect><rect width="19.91" height="1.97" x="333.47" y="146.71" fill="#e14c72" opacity=".5" class="colore14c72 svgShape"></rect><g fill="#000000" class="color000 svgShape"><linearGradient id="j" x1="456.022" x2="456.022" y1="108.465" y2="154.842" gradientTransform="translate(-163.59)" gradientUnits="userSpaceOnUse"><stop offset="0" stop-color="#9d9cf9" class="stopColor9d9cf9 svgShape"></stop><stop offset="1" stop-color="#8c83fb" class="stopColor8c83fb svgShape"></stop></linearGradient><rect width="5.7" height="1.97" x="289.58" y="115.69" fill="url(#j)"></rect><rect width="32.13" height="1.97" x="297.77" y="115.69" fill="#7563fb" opacity=".5" class="color7563fb svgShape"></rect><linearGradient id="k" x1="447.882" x2="447.882" y1="108.465" y2="154.842" gradientTransform="translate(-163.59)" gradientUnits="userSpaceOnUse"><stop offset="0" stop-color="#9d9cf9" class="stopColor9d9cf9 svgShape"></stop><stop offset="1" stop-color="#8c83fb" class="stopColor8c83fb svgShape"></stop></linearGradient><rect width="2.36" height="1.97" x="283.11" y="115.69" fill="url(#k)"></rect><linearGradient id="l" x1="520.99" x2="520.99" y1="108.465" y2="154.842" gradientTransform="translate(-163.59)" gradientUnits="userSpaceOnUse"><stop offset="0" stop-color="#9d9cf9" class="stopColor9d9cf9 svgShape"></stop><stop offset="1" stop-color="#8c83fb" class="stopColor8c83fb svgShape"></stop></linearGradient><rect width="47.86" height="1.97" x="333.47" y="115.69" fill="url(#l)"></rect></g><g fill="#000000" class="color000 svgShape"><linearGradient id="m" x1="456.022" x2="456.022" y1="108.465" y2="154.842" gradientTransform="translate(-163.59)" gradientUnits="userSpaceOnUse"><stop offset="0" stop-color="#9d9cf9" class="stopColor9d9cf9 svgShape"></stop><stop offset="1" stop-color="#8c83fb" class="stopColor8c83fb svgShape"></stop></linearGradient><rect width="5.7" height="1.97" x="289.58" y="152.91" fill="url(#m)"></rect><linearGradient id="n" x1="502.188" x2="502.188" y1="108.465" y2="154.842" gradientTransform="translate(-163.59)" gradientUnits="userSpaceOnUse"><stop offset="0" stop-color="#9d9cf9" class="stopColor9d9cf9 svgShape"></stop><stop offset="1" stop-color="#8c83fb" class="stopColor8c83fb svgShape"></stop></linearGradient><rect width="5.7" height="1.97" x="335.75" y="152.91" fill="url(#n)"></rect><rect width="32.13" height="1.97" x="297.77" y="152.91" fill="#7563fb" opacity=".5" class="color7563fb svgShape"></rect><linearGradient id="o" x1="447.882" x2="447.882" y1="108.465" y2="154.842" gradientTransform="translate(-163.59)" gradientUnits="userSpaceOnUse"><stop offset="0" stop-color="#9d9cf9" class="stopColor9d9cf9 svgShape"></stop><stop offset="1" stop-color="#8c83fb" class="stopColor8c83fb svgShape"></stop></linearGradient><rect width="2.36" height="1.97" x="283.11" y="152.91" fill="url(#o)"></rect><linearGradient id="p" x1="527.477" x2="527.477" y1="108.465" y2="154.842" gradientTransform="translate(-163.59)" gradientUnits="userSpaceOnUse"><stop offset="0" stop-color="#9d9cf9" class="stopColor9d9cf9 svgShape"></stop><stop offset="1" stop-color="#8c83fb" class="stopColor8c83fb svgShape"></stop></linearGradient><rect width="34.88" height="1.97" x="346.45" y="152.91" fill="url(#p)"></rect></g><g fill="#000000" class="color000 svgShape"><linearGradient id="q" x1="461.842" x2="461.842" y1="108.465" y2="154.842" gradientTransform="translate(-163.59)" gradientUnits="userSpaceOnUse"><stop offset="0" stop-color="#9d9cf9" class="stopColor9d9cf9 svgShape"></stop><stop offset="1" stop-color="#8c83fb" class="stopColor8c83fb svgShape"></stop></linearGradient><rect width="17.34" height="1.97" x="289.58" y="121.9" fill="url(#q)"></rect><linearGradient id="r" x1="476.828" x2="476.828" y1="108.465" y2="154.842" gradientTransform="translate(-163.59)" gradientUnits="userSpaceOnUse"><stop offset="0" stop-color="#9d9cf9" class="stopColor9d9cf9 svgShape"></stop><stop offset="1" stop-color="#8c83fb" class="stopColor8c83fb svgShape"></stop></linearGradient><rect width="8.44" height="1.97" x="309.02" y="121.9" fill="url(#r)"></rect><linearGradient id="s" x1="447.882" x2="447.882" y1="108.465" y2="154.842" gradientTransform="translate(-163.59)" gradientUnits="userSpaceOnUse"><stop offset="0" stop-color="#9d9cf9" class="stopColor9d9cf9 svgShape"></stop><stop offset="1" stop-color="#8c83fb" class="stopColor8c83fb svgShape"></stop></linearGradient><rect width="2.36" height="1.97" x="283.11" y="121.9" fill="url(#s)"></rect><linearGradient id="t" x1="497.99" x2="497.99" y1="108.465" y2="154.842" gradientTransform="translate(-163.59)" gradientUnits="userSpaceOnUse"><stop offset="0" stop-color="#9d9cf9" class="stopColor9d9cf9 svgShape"></stop><stop offset="1" stop-color="#8c83fb" class="stopColor8c83fb svgShape"></stop></linearGradient><rect width="26.15" height="1.97" x="321.33" y="121.9" fill="url(#t)"></rect><rect width="31.02" height="1.97" x="350.31" y="121.9" fill="#e14c72" opacity=".5" class="colore14c72 svgShape"></rect></g><g fill="#000000" class="color000 svgShape"><linearGradient id="u" x1="476.152" x2="476.152" y1="108.465" y2="154.842" gradientTransform="translate(-163.59)" gradientUnits="userSpaceOnUse"><stop offset="0" stop-color="#9d9cf9" class="stopColor9d9cf9 svgShape"></stop><stop offset="1" stop-color="#8c83fb" class="stopColor8c83fb svgShape"></stop></linearGradient><rect width="45.96" height="1.97" x="289.58" y="128.1" fill="url(#u)"></rect><linearGradient id="v" x1="447.882" x2="447.882" y1="108.465" y2="154.842" gradientTransform="translate(-163.59)" gradientUnits="userSpaceOnUse"><stop offset="0" stop-color="#9d9cf9" class="stopColor9d9cf9 svgShape"></stop><stop offset="1" stop-color="#8c83fb" class="stopColor8c83fb svgShape"></stop></linearGradient><rect width="2.36" height="1.97" x="283.11" y="128.1" fill="url(#v)"></rect><linearGradient id="w" x1="518.504" x2="518.504" y1="108.465" y2="154.842" gradientTransform="translate(-163.59)" gradientUnits="userSpaceOnUse"><stop offset="0" stop-color="#9d9cf9" class="stopColor9d9cf9 svgShape"></stop><stop offset="1" stop-color="#8c83fb" class="stopColor8c83fb svgShape"></stop></linearGradient><rect width="33.93" height="1.97" x="337.95" y="128.1" fill="url(#w)"></rect></g><g fill="#000000" class="color000 svgShape"><rect width="23.59" height="1.97" x="289.58" y="134.3" fill="#e14c72" opacity=".5" class="colore14c72 svgShape"></rect><linearGradient id="x" x1="447.882" x2="447.882" y1="108.465" y2="154.842" gradientTransform="translate(-163.59)" gradientUnits="userSpaceOnUse"><stop offset="0" stop-color="#9d9cf9" class="stopColor9d9cf9 svgShape"></stop><stop offset="1" stop-color="#8c83fb" class="stopColor8c83fb svgShape"></stop></linearGradient><rect width="2.36" height="1.97" x="283.11" y="134.3" fill="url(#x)"></rect><linearGradient id="y" x1="512.981" x2="512.981" y1="108.465" y2="154.842" gradientTransform="translate(-163.59)" gradientUnits="userSpaceOnUse"><stop offset="0" stop-color="#9d9cf9" class="stopColor9d9cf9 svgShape"></stop><stop offset="1" stop-color="#8c83fb" class="stopColor8c83fb svgShape"></stop></linearGradient><rect width="44.98" height="1.97" x="326.9" y="134.3" fill="url(#y)"></rect><linearGradient id="z" x1="541.888" x2="541.888" y1="108.465" y2="154.842" gradientTransform="translate(-163.59)" gradientUnits="userSpaceOnUse"><stop offset="0" stop-color="#9d9cf9" class="stopColor9d9cf9 svgShape"></stop><stop offset="1" stop-color="#8c83fb" class="stopColor8c83fb svgShape"></stop></linearGradient><rect width="6.06" height="1.97" x="375.27" y="134.3" fill="url(#z)"></rect><linearGradient id="A" x1="482.93" x2="482.93" y1="108.465" y2="154.842" gradientTransform="translate(-163.59)" gradientUnits="userSpaceOnUse"><stop offset="0" stop-color="#9d9cf9" class="stopColor9d9cf9 svgShape"></stop><stop offset="1" stop-color="#8c83fb" class="stopColor8c83fb svgShape"></stop></linearGradient><rect width="6.06" height="1.97" x="316.31" y="134.3" fill="url(#A)"></rect></g><g fill="#000000" class="color000 svgShape"><linearGradient id="B" x1="459.105" x2="459.105" y1="108.465" y2="154.842" gradientTransform="translate(-163.59)" gradientUnits="userSpaceOnUse"><stop offset="0" stop-color="#9d9cf9" class="stopColor9d9cf9 svgShape"></stop><stop offset="1" stop-color="#8c83fb" class="stopColor8c83fb svgShape"></stop></linearGradient><rect width="11.87" height="1.97" x="289.58" y="140.5" fill="url(#B)"></rect><linearGradient id="C" x1="483.028" x2="483.028" y1="108.465" y2="154.842" gradientTransform="translate(-163.59)" gradientUnits="userSpaceOnUse"><stop offset="0" stop-color="#9d9cf9" class="stopColor9d9cf9 svgShape"></stop><stop offset="1" stop-color="#8c83fb" class="stopColor8c83fb svgShape"></stop></linearGradient><rect width="11.87" height="1.97" x="313.51" y="140.5" fill="url(#C)"></rect><linearGradient id="D" x1="447.882" x2="447.882" y1="108.465" y2="154.842" gradientTransform="translate(-163.59)" gradientUnits="userSpaceOnUse"><stop offset="0" stop-color="#9d9cf9" class="stopColor9d9cf9 svgShape"></stop><stop offset="1" stop-color="#8c83fb" class="stopColor8c83fb svgShape"></stop></linearGradient><rect width="2.36" height="1.97" x="283.11" y="140.5" fill="url(#D)"></rect><linearGradient id="E" x1="508.749" x2="508.749" y1="108.465" y2="154.842" gradientTransform="translate(-163.59)" gradientUnits="userSpaceOnUse"><stop offset="0" stop-color="#9d9cf9" class="stopColor9d9cf9 svgShape"></stop><stop offset="1" stop-color="#8c83fb" class="stopColor8c83fb svgShape"></stop></linearGradient><rect width="30.74" height="1.97" x="329.79" y="140.5" fill="url(#E)"></rect><rect width="16.75" height="1.97" x="364.58" y="140.5" fill="#7563fb" opacity=".5" class="color7563fb svgShape"></rect><linearGradient id="F" x1="471.286" x2="471.286" y1="108.465" y2="154.842" gradientTransform="translate(-163.59)" gradientUnits="userSpaceOnUse"><stop offset="0" stop-color="#9d9cf9" class="stopColor9d9cf9 svgShape"></stop><stop offset="1" stop-color="#8c83fb" class="stopColor8c83fb svgShape"></stop></linearGradient><rect width="6.06" height="1.97" x="304.67" y="140.5" fill="url(#F)"></rect></g></g>
</svg>