<svg xmlns="http://www.w3.org/2000/svg" enable-background="new 0 0 600 600" viewBox="0 0 600 600" width="550" height="550"><linearGradient id="a" x1="355.265" x2="279.204" y1="46.391" y2="389.112" gradientUnits="userSpaceOnUse"><stop offset="0" stop-color="#cedcf9" stop-opacity="0" class="stopColorcedcf9 svgShape"></stop><stop offset="1" stop-color="#c3d2ff" class="stopColorc3d2ff svgShape"></stop></linearGradient><path fill="url(#a)" d="m514.828 405.396-409.004 1.465c-16.723-4.485-57.777-72.14-61.526-147.59-1.094-22.018-7.153-179.694 164.575-185.312 13.924-.451 51.584 2.448 65.027.522 15.56-2.227 212.678 2.127 249.516 24.96 27.176 16.843 2.257 104.844 2.899 178.519.3 34.79 28.711 60.523 29.654 84.86.893 23.315-17.816 42.666-41.14 42.576z"></path><path fill="#373a50" d="M376.732 122.195h-2.5a.5.5 0 1 1 0-1h2.5a.5.5 0 1 1 0 1zM494.713 207.02a.5.5 0 0 1-.5-.5v-4.977a.5.5 0 1 1 1 0v4.978a.5.5 0 0 1-.5.5zm0-9.955a.5.5 0 0 1-.5-.5v-4.977a.5.5 0 1 1 1 0v4.977a.5.5 0 0 1-.5.5zm0-9.955a.5.5 0 0 1-.5-.5v-4.978a.5.5 0 1 1 1 0v4.978a.5.5 0 0 1-.5.5zm0-9.956a.5.5 0 0 1-.5-.5v-4.977a.5.5 0 1 1 1 0v4.977a.5.5 0 0 1-.5.5zm0-9.955a.5.5 0 0 1-.5-.5v-4.978a.5.5 0 1 1 1 0v4.978a.5.5 0 0 1-.5.5zm0-9.955a.5.5 0 0 1-.5-.5v-4.978a.5.5 0 1 1 1 0v4.978a.5.5 0 0 1-.5.5zm0-9.956a.5.5 0 0 1-.5-.5v-4.978a.5.5 0 1 1 1 0v4.978a.5.5 0 0 1-.5.5zm0-9.955a.5.5 0 0 1-.5-.5v-4.978a.5.5 0 1 1 1 0v4.978a.5.5 0 0 1-.5.5zm-.676-9.864a.501.501 0 0 1-.46-.306 8.12 8.12 0 0 0-2.936-3.573.5.5 0 0 1 .56-.828 9.121 9.121 0 0 1 3.297 4.012.5.5 0 0 1-.46.695zm-7.795-5.273h-.007l-4.97-.001a.5.5 0 1 1 0-1l4.985.001a.5.5 0 0 1-.008 1zm-9.955-.001h-4.978a.5.5 0 1 1 0-1h4.978a.5.5 0 1 1 0 1zm-9.956 0h-4.977a.5.5 0 1 1 0-1h4.977a.5.5 0 1 1 0 1zm-9.955 0H451.4a.5.5 0 1 1 0-1h4.977a.5.5 0 1 1 0 1zm-9.956 0h-4.977a.5.5 0 1 1 0-1h4.977a.5.5 0 1 1 0 1zm-9.955 0h-4.977a.5.5 0 1 1 0-1h4.977a.5.5 0 1 1 0 1zm-9.955 0h-4.978a.5.5 0 1 1 0-1h4.978a.5.5 0 1 1 0 1zm-9.956 0h-4.978a.5.5 0 1 1 0-1h4.978a.5.5 0 1 1 0 1zm-9.955 0h-4.978a.5.5 0 1 1 0-1h4.978a.5.5 0 1 1 0 1zm-9.955 0h-4.979a.5.5 0 1 1 0-1h4.979a.5.5 0 1 1 0 1zm-9.956 0h-4.978a.5.5 0 1 1 0-1h4.978a.5.5 0 1 1 0 1zM494.713 214.506a.5.5 0 0 1-.5-.5v-2.5a.5.5 0 1 1 1 0v2.5a.5.5 0 0 1-.5.5z" class="color373a50 svgShape"></path><linearGradient id="b" x1="302.84" x2="302.84" y1="514.293" y2="364.859" gradientUnits="userSpaceOnUse"><stop offset="0" stop-color="#cedcf9" stop-opacity="0" class="stopColorcedcf9 svgShape"></stop><stop offset="1" stop-color="#c3d2ff" class="stopColorc3d2ff svgShape"></stop></linearGradient><path fill="url(#b)" d="M542.155 485.3c-14.101 20.696-122.208 40.705-209.918 40.79-54.382.055-210.075-11.11-218.05-36.354-7.965-25.253 71.696-27.694 71.952-43.305.256-15.619-124.496-11.721-125.75-26.422-1.255-14.692 109.153-15.564 147.462-15.22 68.47.603 228.804-1.372 297.239.642 11.86.353 24.79 7.775 27.542 20.638 2.752 12.845-20.128 20.706-17.084 31.258 3.044 10.562 40.707 7.276 26.607 27.973z"></path><linearGradient id="c" x1="453.306" x2="449.879" y1="194.725" y2="195.06" gradientUnits="userSpaceOnUse"><stop offset="0" stop-color="#d1deff" class="stopColord1deff svgShape"></stop><stop offset="1" stop-color="#b2c7ff" class="stopColorb2c7ff svgShape"></stop></linearGradient><path fill="url(#c)" d="M441.672 300.621c0 6.52-5.275 11.794-11.793 11.794h-8.09V82.339h8.128c6.104 0 11.118 4.648 11.697 10.607.09.9.045 68.482.058 207.675z"></path><path fill="#373a50" d="M211.535 204.905h-5a.5.5 0 1 1 0-1h5a.5.5 0 1 1 0 1zm-10 0h-5a.5.5 0 1 1 0-1h5a.5.5 0 1 1 0 1zm-10 0h-5a.5.5 0 1 1 0-1h5a.5.5 0 1 1 0 1zm-10 0h-5a.5.5 0 1 1 0-1h5a.5.5 0 1 1 0 1zm-10 0h-5a.5.5 0 1 1 0-1h5a.5.5 0 1 1 0 1zm-10 0-5.01-.001a.5.5 0 1 1 .02-1l4.99.001a.5.5 0 1 1 0 1zm-9.582-1.74a.497.497 0 0 1-.324-.12 7.812 7.812 0 0 1-2.618-4.536.5.5 0 0 1 .984-.179 6.812 6.812 0 0 0 2.283 3.954.5.5 0 0 1-.325.88zm-2.567-9.238a.5.5 0 0 1-.5-.5v-5a.5.5 0 1 1 1 0v5a.5.5 0 0 1-.5.5zm0-10a.5.5 0 0 1-.5-.5v-5a.5.5 0 1 1 1 0v5a.5.5 0 0 1-.5.5zm0-10a.5.5 0 0 1-.5-.5v-5a.5.5 0 1 1 1 0v5a.5.5 0 0 1-.5.5zm0-10a.5.5 0 0 1-.5-.5v-5a.5.5 0 1 1 1 0v5a.5.5 0 0 1-.5.5zm0-10a.5.5 0 0 1-.5-.5v-5a.5.5 0 1 1 1 0v5a.5.5 0 0 1-.5.5zm0-10a.5.5 0 0 1-.5-.5v-5a.5.5 0 1 1 1 0v5a.5.5 0 0 1-.5.5z" class="color373a50 svgShape"></path><path fill="#ffffff" d="M436.67 94.15v206.47c0 6.518-5.274 11.793-11.792 11.793H207.656c-6.518 0-11.803-5.275-11.803-11.793V94.15c0-6.519 5.285-11.803 11.803-11.803h217.222c6.518 0 11.793 5.284 11.793 11.802z" class="colorfff svgShape"></path><linearGradient id="d" x1="195.862" x2="436.678" y1="94.274" y2="94.274" gradientUnits="userSpaceOnUse"><stop offset="0" stop-color="#d1deff" class="stopColord1deff svgShape"></stop><stop offset="1" stop-color="#b2c7ff" class="stopColorb2c7ff svgShape"></stop></linearGradient><path fill="url(#d)" d="M436.678 94.106v12.101H195.862V94.106c0-6.5 5.255-11.765 11.754-11.765h217.307c6.49 0 11.755 5.265 11.755 11.765z"></path><path fill="#ffffff" d="M211.62 94.854a3.75 3.75 0 1 1-7.498 0 3.749 3.749 0 1 1 7.498 0zM221.829 94.854a3.75 3.75 0 1 1-7.498 0 3.749 3.749 0 1 1 7.498 0zM232.038 94.854a3.75 3.75 0 1 1-7.498 0 3.749 3.749 0 1 1 7.498 0z" class="colorfff svgShape"></path><path fill="#cedcf9" d="M419.154 121.695h-6.115v25.11h6.115a3.695 3.695 0 0 0 3.691-3.692v-17.727a3.695 3.695 0 0 0-3.691-3.691z" class="colorcedcf9 svgShape"></path><path fill="#ebf2ff" d="M419.99 125.386v17.727a3.695 3.695 0 0 1-3.692 3.692H216.23a3.688 3.688 0 0 1-3.692-3.692v-17.727a3.688 3.688 0 0 1 3.692-3.691h200.068a3.695 3.695 0 0 1 3.691 3.691z" class="colorebf2ff svgShape"></path><linearGradient id="e" x1="219.651" x2="233.083" y1="134.25" y2="134.25" gradientUnits="userSpaceOnUse"><stop offset="0" stop-color="#f34b6d" class="stopColorf34b6d svgShape"></stop><stop offset="1" stop-color="#e24067" class="stopColore24067 svgShape"></stop></linearGradient><path fill="url(#e)" d="M233.083 134.255a6.711 6.711 0 0 1-6.71 6.711c-3.713 0-6.722-3-6.722-6.711a6.722 6.722 0 0 1 6.721-6.722c3.702 0 6.711 3.01 6.711 6.722z"></path><linearGradient id="f" x1="238.39" x2="319.088" y1="134.25" y2="134.25" gradientUnits="userSpaceOnUse"><stop offset="0" stop-color="#d1deff" class="stopColord1deff svgShape"></stop><stop offset="1" stop-color="#b2c7ff" class="stopColorb2c7ff svgShape"></stop></linearGradient><path fill="url(#f)" d="M319.088 134.245a2.706 2.706 0 0 1-2.709 2.708h-75.29a2.702 2.702 0 0 1-2.699-2.708 2.703 2.703 0 0 1 2.699-2.699h75.29a2.708 2.708 0 0 1 2.709 2.699z"></path><path fill="#30bb93" d="M219.651 157.906h78.555v58.057h-78.555z" class="color30bb93 svgShape"></path><path fill="#3dcfa4" d="M215.911 157.906h80.733v58.057h-80.733z" class="color3dcfa4 svgShape"></path><path fill="#30bb93" d="M222.015 185.934h68.527v2h-68.527z" transform="rotate(-33.682 256.278 186.934)" class="color30bb93 svgShape"></path><path fill="#30bb93" d="M255.278 152.671h2v68.527h-2z" transform="rotate(-56.332 256.278 186.934)" class="color30bb93 svgShape"></path><path fill="#cedcf9" d="M310.03 160.109h35.865v12.65H310.03z" class="colorcedcf9 svgShape"></path><path fill="#ebf2ff" d="M310.029 180.348h111.756v2.959H310.029zM310.029 190.897h111.756v2.959H310.029zM310.029 201.446h111.756v2.959H310.029zM310.029 211.995h29.514v2.959h-29.514zM351.195 211.995h23.037v2.959h-23.037z" class="colorebf2ff svgShape"></path><path fill="#cedcf9" d="M305.863 228.753H303v70.127h2.863a6.251 6.251 0 0 0 6.252-6.251v-57.625a6.251 6.251 0 0 0-6.252-6.251z" class="colorcedcf9 svgShape"></path><path fill="#ebf2ff" d="M303.798 298.88h-86.032a6.231 6.231 0 0 1-6.23-6.232v-57.664a6.231 6.231 0 0 1 6.23-6.232h86.032a6.231 6.231 0 0 1 6.232 6.232v57.664a6.231 6.231 0 0 1-6.232 6.232z" class="colorebf2ff svgShape"></path><linearGradient id="g" x1="260.779" x2="260.779" y1="246.584" y2="264.168" gradientUnits="userSpaceOnUse"><stop offset="0" stop-color="#909eff" class="stopColor909eff svgShape"></stop><stop offset="1" stop-color="#6977e3" class="stopColor6977e3 svgShape"></stop></linearGradient><path fill="url(#g)" d="M299.513 238.822v32.303a2.385 2.385 0 0 1-2.378 2.388h-72.702a2.393 2.393 0 0 1-2.387-2.388v-32.303a2.385 2.385 0 0 1 2.387-2.377h72.702a2.376 2.376 0 0 1 2.378 2.377z"></path><path fill="#cedcf9" d="M298.08 282.902h-74.595a1.436 1.436 0 0 1-1.436-1.435v-.01c0-.793.643-1.436 1.436-1.436h74.595c.793 0 1.436.643 1.436 1.436v.01c0 .793-.643 1.435-1.436 1.435zM285.23 289.661h-61.745a1.436 1.436 0 0 1-1.436-1.435v-.01c0-.793.643-1.435 1.436-1.435h61.745c.793 0 1.435.642 1.435 1.435v.01c0 .793-.642 1.435-1.435 1.435zM414.738 228.753h-2.863v70.127h2.863a6.251 6.251 0 0 0 6.251-6.251v-57.625a6.251 6.251 0 0 0-6.251-6.251z" class="colorcedcf9 svgShape"></path><path fill="#ebf2ff" d="M412.673 298.88H326.64a6.231 6.231 0 0 1-6.231-6.232v-57.664a6.231 6.231 0 0 1 6.23-6.232h86.033a6.231 6.231 0 0 1 6.23 6.232v57.664a6.231 6.231 0 0 1-6.23 6.232z" class="colorebf2ff svgShape"></path><linearGradient id="h" x1="369.654" x2="369.654" y1="246.584" y2="264.168" gradientUnits="userSpaceOnUse"><stop offset="0" stop-color="#909eff" class="stopColor909eff svgShape"></stop><stop offset="1" stop-color="#6977e3" class="stopColor6977e3 svgShape"></stop></linearGradient><path fill="url(#h)" d="M408.387 238.822v32.303a2.385 2.385 0 0 1-2.377 2.388h-72.702a2.393 2.393 0 0 1-2.388-2.388v-32.303a2.385 2.385 0 0 1 2.388-2.377h72.702a2.376 2.376 0 0 1 2.377 2.377z"></path><path fill="#cedcf9" d="M406.955 282.902h-74.596a1.436 1.436 0 0 1-1.436-1.435v-.01c0-.793.643-1.436 1.436-1.436h74.596c.793 0 1.435.643 1.435 1.436v.01c0 .793-.642 1.435-1.435 1.435zM394.104 289.661h-61.745a1.436 1.436 0 0 1-1.436-1.435v-.01c0-.793.643-1.435 1.436-1.435h61.745c.793 0 1.436.642 1.436 1.435v.01c0 .793-.643 1.435-1.436 1.435z" class="colorcedcf9 svgShape"></path><path fill="#373a50" d="M530.59 222.64V402.3c0 8.357-6.772 15.136-15.137 15.136h-82.03c-8.359 0-15.137-6.779-15.137-15.137V222.641c0-8.359 6.778-15.137 15.137-15.137h82.03c8.365 0 15.137 6.778 15.137 15.137z" class="color373a50 svgShape"></path><path fill="#ffffff" d="M433.422 411.383c-5.01 0-9.085-4.076-9.085-9.085V222.64c0-5.01 4.076-9.085 9.085-9.085h18.53l.136.45c1.016 3.369 4.187 5.721 7.711 5.721h29.28c3.526 0 6.693-2.352 7.703-5.72l.135-.451h18.538c5.01 0 9.085 4.075 9.085 9.085v179.658c0 5.01-4.076 9.085-9.085 9.085h-82.033z" class="colorfff svgShape"></path><path fill="#cedcf9" d="M514.769 230.05h-4.54v21.674h4.54c.742 0 1.344-.602 1.344-1.344v-18.985c0-.743-.602-1.345-1.344-1.345z" class="colorcedcf9 svgShape"></path><path fill="#ebf2ff" d="M514.645 231.395v18.985c0 .742-.602 1.344-1.344 1.344h-77.728a1.344 1.344 0 0 1-1.344-1.344v-18.985c0-.743.602-1.345 1.344-1.345h77.728c.742 0 1.344.602 1.344 1.345z" class="colorebf2ff svgShape"></path><path fill="#b2c7ff" d="M514.769 323.704h-4.54v11.509h4.54c.742 0 1.344-.602 1.344-1.344v-8.82c0-.743-.602-1.345-1.344-1.345z" class="colorb2c7ff svgShape"></path><path fill="#cedcf9" d="M514.645 325.048v8.82c0 .743-.602 1.345-1.344 1.345h-77.728a1.344 1.344 0 0 1-1.344-1.344v-8.82c0-.743.602-1.345 1.344-1.345h77.728c.742 0 1.344.602 1.344 1.344z" class="colorcedcf9 svgShape"></path><linearGradient id="i" x1="442.23" x2="450.085" y1="240.887" y2="240.887" gradientUnits="userSpaceOnUse"><stop offset="0" stop-color="#f34b6d" class="stopColorf34b6d svgShape"></stop><stop offset="1" stop-color="#e24067" class="stopColore24067 svgShape"></stop></linearGradient><path fill="url(#i)" d="M450.085 240.89c0 2.17-1.76 3.925-3.925 3.925a3.926 3.926 0 0 1-3.93-3.925 3.93 3.93 0 0 1 3.93-3.93 3.93 3.93 0 0 1 3.925 3.93z"></path><linearGradient id="j" x1="453.188" x2="506.645" y1="240.887" y2="240.887" gradientUnits="userSpaceOnUse"><stop offset="0" stop-color="#d1deff" class="stopColord1deff svgShape"></stop><stop offset="1" stop-color="#b2c7ff" class="stopColorb2c7ff svgShape"></stop></linearGradient><path fill="url(#j)" d="M506.645 240.884c0 .863-.695 1.584-1.584 1.584h-50.295a1.58 1.58 0 0 1 0-3.162h50.295c.874 0 1.584.71 1.584 1.578z"></path><path fill="#30bb93" d="M514.468 257.849h-5.597v59.73h5.597c.903 0 1.645-.742 1.645-1.645v-56.43c0-.913-.742-1.655-1.645-1.655z" class="color30bb93 svgShape"></path><path fill="#3dcfa4" d="M514.063 259.504v56.43c0 .903-.742 1.645-1.645 1.645h-76.544a1.646 1.646 0 0 1-1.645-1.645v-56.43c0-.913.732-1.655 1.645-1.655h76.544c.903 0 1.645.742 1.645 1.655z" class="color3dcfa4 svgShape"></path><path fill="#cedcf9" d="M514.468 359.326h-5.597v42.903h5.597c.903 0 1.645-.742 1.645-1.645v-39.602c0-.913-.742-1.656-1.645-1.656z" class="colorcedcf9 svgShape"></path><path fill="#ebf2ff" d="M514.063 360.982v39.602c0 .903-.742 1.645-1.645 1.645h-76.544a1.646 1.646 0 0 1-1.645-1.645v-39.602c0-.913.732-1.656 1.645-1.656h76.544c.903 0 1.645.743 1.645 1.656z" class="colorebf2ff svgShape"></path><path fill="#30bb93" d="M439.883 286.714h68.527v2h-68.527z" transform="rotate(-33.682 474.146 287.714)" class="color30bb93 svgShape"></path><path fill="#30bb93" d="M473.146 253.451h2v68.527h-2z" transform="rotate(-56.332 474.146 287.714)" class="color30bb93 svgShape"></path><path fill="#cedcf9" d="M510.497 340.102h5.365v5.119h-5.365z" class="colorcedcf9 svgShape"></path><path fill="#ebf2ff" d="M434.229 340.102h80.125v5.119h-80.125z" class="colorebf2ff svgShape"></path><path fill="#cedcf9" d="M510.497 349.714h5.365v5.119h-5.365zM435.713 349.714h19.498v5.119h-19.498zM460.79 349.714h28.862v5.119H460.79z" class="colorcedcf9 svgShape"></path><path fill="#ebf2ff" d="M434.229 349.714h19.498v5.119h-19.498zM459.306 349.714h28.862v5.119h-28.862zM494.714 349.714h19.641v5.119h-19.641z" class="colorebf2ff svgShape"></path><path fill="#111228" d="M515.453 417.436c8.365 0 15.137-6.779 15.137-15.137V222.641c0-8.359-6.772-15.137-15.137-15.137h4.013c8.365 0 15.137 6.778 15.137 15.137v179.658c0 8.358-6.772 15.137-15.137 15.137h-4.013z" class="color111228 svgShape"></path><linearGradient id="k" x1="439.064" x2="509.228" y1="374.621" y2="374.621" gradientUnits="userSpaceOnUse"><stop offset="0" stop-color="#909eff" class="stopColor909eff svgShape"></stop><stop offset="1" stop-color="#6977e3" class="stopColor6977e3 svgShape"></stop></linearGradient><path fill="url(#k)" d="M509.228 365.201v18.84c0 .743-.602 1.354-1.354 1.354h-67.455a1.355 1.355 0 0 1-1.355-1.354v-18.84c0-.752.602-1.354 1.355-1.354h67.455c.752 0 1.354.602 1.354 1.354z"></path><path fill="#cedcf9" d="M439.064 388.806h70.164v2.288h-70.164zM439.064 393.757h16.215v2.288h-16.215zM457.882 393.757h10.411v2.288h-10.411zM472.831 393.757h19.554v2.288h-19.554z" class="colorcedcf9 svgShape"></path><path fill="#373a50" d="m63.547 478.49-2.528 10.559a3.686 3.686 0 0 0 3.493 4.392c9.316.312 27.629.003 31.01-.027a.503.503 0 0 0 .497-.485c.151-3.23-1.995-5.284-5.156-6.873l-12.187-8.207a.133.133 0 0 0-.075-.019l-15.054.66z" class="color373a50 svgShape"></path><path fill="#ffdad9" d="M63.545 478.489c.137 3.128 15.193 2.47 15.056-.659l.298-12.366-14.098-.437-1.256 13.462z" class="colorffdad9 svgShape"></path><path fill="#373a50" d="M109.24 315.552c-1.315 15.497-3.485 30.016-11.534 37.79L81.882 471.328c0 .713-2.109 1.202-4.992 1.467-6.185.56-15.935.072-15.935-1.467 0 0-2.221-110.834-3.26-143.325-.154-4.983 37.626-7.938 37.626-7.938l13.918-4.513zM100.228 478.49 97.7 489.048a3.686 3.686 0 0 0 3.493 4.392c9.317.312 27.63.003 31.01-.027a.503.503 0 0 0 .498-.485c.15-3.23-1.995-5.284-5.156-6.873l-12.188-8.207a.133.133 0 0 0-.075-.019l-15.054.66z" class="color373a50 svgShape"></path><path fill="#ffdad9" d="M100.226 478.489c.137 3.128 15.193 2.47 15.056-.659l.298-12.366-14.098-.437-1.256 13.462z" class="colorffdad9 svgShape"></path><path fill="#373a50" d="M118.463 317.09c-1.315 15.496.1 154.238.1 154.238 0 .713-2.108 1.202-4.992 1.467-6.184.56-15.935.072-15.935-1.467 0 0-19.797-110.834-20.836-143.325-.153-4.983 41.663-10.914 41.663-10.914z" class="color373a50 svgShape"></path><path fill="#ffdad9" d="m161.667 269.882 5.247 8.561s11.463-2.092 13.965-5.739c2.512-3.637-4.636-8.195-4.636-8.195s11.987-6.663 9.766-9.572c-2.143-2.803-12.675 7.09-13.403 7.768.252-.339 1.775-2.521-.378-4.46-2.337-2.115-10.561 11.637-10.561 11.637z" class="colorffdad9 svgShape"></path><path fill="#657bff" d="M97.706 273.655s1.057 1.726 2.842 4.383c6.022 9.02 20.357 28.785 29.977 28.436 2.648-.097 5.829-1.203 9.223-2.939 13.995-7.118 31.733-24.692 31.733-24.692l-8.156-13.693-27.126 15.963s-18.815-38.541-24.653-40.2c-11.056-3.152-13.84 32.742-13.84 32.742z" class="color657bff svgShape"></path><path fill="#5062eb" d="M100.548 278.038c6.022 9.02 20.357 28.785 29.977 28.436 2.648-.097 5.829-1.203 9.223-2.939-3.86.127-8.03-.358-10.639-3.152-2.036-2.182-2.657-5.285-3.19-8.224-.873-4.762-1.736-9.514-2.61-14.276-.785-4.316-1.58-8.622-2.366-12.938-.485-2.667-.31-7.778-3.481-8.815-6.013-1.969-11.91 8.292-13.82 12.501-1.378 3.016-2.338 6.178-3.094 9.407z" class="color5062eb svgShape"></path><path fill="#657bff" d="M54.69 328.73c.556.857 1.8 1.554 3.565 2.11 1.888.609 4.36 1.059 7.245 1.385 17.675 1.959 50.66-1.085 55.195-4.774 0 0 .662-14.145.53-30.964a430.12 430.12 0 0 0-.088-6.663c-.027-.961-.044-1.932-.08-2.894-.062-2.382-.15-4.783-.256-7.156-.767-16.96-2.753-32.924-7.297-37.203-14.163-13.29-42.798-9.628-55.01-.874-2.074 1.491-3.425 6.415-4.272 13.228-.38 3.026-.662 6.433-.856 10.077-1.394 25.908 1.324 63.729 1.324 63.729z" class="color657bff svgShape"></path><path fill="#5062eb" d="M54.69 328.73c.556.857 1.8 1.554 3.565 2.11.565-1.35.759-2.948.706-4.403-.141-3.857-1.324-7.625-1.42-11.481-.089-3.865 1.279-8.163 4.72-9.91 4.06-2.064 8.842.239 13.28 1.262 7.678 1.765 34.442-5.32 45.684-9.821a430.12 430.12 0 0 0-.088-6.663c-.027-.961-.044-1.932-.08-2.894-.062-2.382-.15-4.783-.256-7.156-1.438-1.836-2.62-3.098-2.788-3.186-5.974-3.07-21.302 3.106-27.285.035-2.709-1.394-10.721-13.854-12.415-16.527-3.071-4.845-5.286-10.722-9.301-14.904-2.1-2.189-4.483-1.915-6.195.538-1.932 2.77-3.759 5.215-6.38 7.421a61.03 61.03 0 0 1-2.215 1.774c-.38 3.026-.662 6.433-.856 10.077-1.394 25.908 1.324 63.729 1.324 63.729z" class="color5062eb svgShape"></path><path fill="#ffdad9" d="m78.794 214.04.747 20.288s12.686 8.719 17.69 7.37c2.143-.581-2.357-7.864-2.357-7.864l-.3-5.121-.417-7.032-7.449-3.704-7.914-3.938z" class="colorffdad9 svgShape"></path><path fill="#fecdcb" d="M86.485 220.479c1.91 3.297 8.089 8.234 8.089 8.234l-.417-7.032-7.449-3.704c-.572.688-.785 1.532-.223 2.502z" class="colorfecdcb svgShape"></path><path fill="#ffdad9" d="M100.947 223.865c-6.4 3.423-20.724-7.393-22.115-8.445-.073-.072-.11-.097-.11-.097s-8.202-2.008-7.875-6.69c.472-6.533 7.694-1.126 7.694-1.126l-3.653-11.734 4.827-7.018 22.49 2.638s.98 5.19 1.597 11.445c.847 8.493 1.016 18.957-2.855 21.027z" class="colorffdad9 svgShape"></path><path fill="#111228" d="M105.867 200.802c-.859.242-20.827-1.523-22.243-1.329-1.645.23-2.24 8.76-3.292 9.305-1.053.544-1.79-1.27-1.79-1.27s-7.223-5.408-7.695 1.125c-.327 4.682 7.876 6.69 7.876 6.69s.036.025.109.097l.278 7.368c-12.05-8.65-14.675-22.467-9.194-30.693 5.48-8.215 14.723-8.372 21.728-7.707 7.004.666 9.672-4.408 14.995-1.819 5.324 2.578 5.374 16.515-.772 18.233z" class="color111228 svgShape"></path><path fill="#ffdad9" d="M101.381 206.032c-.194-.783-.807-1.314-1.377-1.168-.562.136-.86.883-.658 1.665M100.776 216.475c-1.299.447-2.871.608-4.726.484M93.208 206.87c-.194-.783-.815-1.313-1.377-1.168-.562.136-.86.883-.667 1.666" class="colorffdad9 svgShape"></path><path fill="#ffdad9" d="M98.857 206.654c-.3-1.197.294-2.095 1.029-2.277.756-.187 1.692.359 1.978 1.535l-.972.235c-.093-.384-.434-.88-.766-.8-.336.084-.394.684-.299 1.064l-.97.243zM96.016 217.462l.066-.998c1.78.12 3.301-.035 4.528-.458l.326.945c-1.543.533-3.297.62-4.92.51zM90.678 207.493c-.297-1.189.288-2.093 1.036-2.278.85-.21 1.708.463 1.978 1.53l-.97.245c-.136-.538-.52-.867-.767-.804-.332.081-.408.66-.306 1.064l-.971.243z" class="colorffdad9 svgShape"></path><path fill="#111228" d="M91.163 207.371c.198.788.806 1.308 1.373 1.167.562-.133.861-.882.67-1.67-.196-.782-.811-1.307-1.372-1.168-.567.14-.868.884-.67 1.671zM99.342 206.533c.19.788.805 1.307 1.366 1.167.568-.133.868-.883.67-1.67-.19-.782-.805-1.308-1.372-1.167-.561.14-.861.882-.664 1.67zM101.433 204.165c-1.035-.175-1.373-.449-2.109.083a3.637 3.637 0 0 1-.688.55c.028-.316.1-.639.245-.932.408-.695 1.265-.848 1.917-.419.287.179.48.434.635.718zM92.623 204.828c-1.044-.175-1.37-.448-2.109.084a3.638 3.638 0 0 1-.688.55c.028-.316.1-.639.245-.932.406-.692 1.264-.85 1.917-.419.287.179.48.434.635.717zM96.42 205.941c.481 1.88.637 3.804.943 4.583.3.807 1.13 1.287 1.279 1.971.187.884-.425 1.554-1.141 2.092.49-.596.994-1.325.77-1.99-.23-.635-.97-.83-1.374-1.893-.385-1.047-.486-3.778-.476-4.763z" class="color111228 svgShape"></path><path fill="#ffffff" d="M96.05 217.031c.154 1.504 1.343 2.615 2.65 2.48 1.302-.133 2.24-1.461 2.086-2.965-.003-.028-.012-.047-.014-.068-1.296.448-2.868.61-4.722.485.002.02-.003.041 0 .068z" class="colorfff svgShape"></path><path fill="#373a50" d="m134.935 291.897 12.459-1.41a2.692 2.692 0 0 0 2.353-2.239l3.446-20.976a2.692 2.692 0 0 0-2.96-3.111l-12.459 1.41a2.692 2.692 0 0 0-2.353 2.239l-3.445 20.976a2.692 2.692 0 0 0 2.959 3.111z" class="color373a50 svgShape"></path><path fill="#ffdad9" d="m125.653 278.066 9.34-7.648-.646 3.927s17.372-8.336 14.774 3.793-22.28 10.43-22.28 10.43l-1.188-10.502z" class="colorffdad9 svgShape"></path><path fill="#657bff" d="M60.376 240.42c-5.65 3.51-10.123 13.957-9.483 22.195.999 12.858 11.74 36.254 23.168 40.78 7.785 3.084 53.647-14.279 53.647-14.279 1.604-.28-.738-13.66-2.343-13.38l-41.71 4.837s-13.52-46.214-23.28-40.153z" class="color657bff svgShape"></path><linearGradient id="l" x1="230.255" x2="276.824" y1="396.139" y2="396.139" gradientUnits="userSpaceOnUse"><stop offset="0" stop-color="#ebf2ff" class="stopColorebf2ff svgShape"></stop><stop offset="1" stop-color="#e1e8ff" class="stopColore1e8ff svgShape"></stop></linearGradient><path fill="url(#l)" d="m276.824 376.898-7.043 38.482h-32.483l-7.043-38.482z"></path><linearGradient id="m" x1="247.047" x2="230.248" y1="371.585" y2="354.786" gradientUnits="userSpaceOnUse"><stop offset="0" stop-color="#3dcfa4" class="stopColor3dcfa4 svgShape"></stop><stop offset="1" stop-color="#30bb93" class="stopColor30bb93 svgShape"></stop></linearGradient><path fill="url(#m)" d="M252.01 376.906s-10.452-38.541-33.82-41.992c0 0 19.128 25.023 19.227 41.992h14.592"></path><linearGradient id="n" x1="233.633" x2="231.373" y1="367.779" y2="374.352" gradientUnits="userSpaceOnUse"><stop offset="0" stop-color="#3dcfa4" class="stopColor3dcfa4 svgShape"></stop><stop offset="1" stop-color="#30bb93" class="stopColor30bb93 svgShape"></stop></linearGradient><path fill="url(#n)" d="M250.333 376.906s-7-22.864-32.833-19.906c0 0 17.65 7.473 19.917 19.906h12.916"></path><linearGradient id="o" x1="265.5" x2="281.491" y1="369.417" y2="353.426" gradientUnits="userSpaceOnUse"><stop offset="0" stop-color="#3dcfa4" class="stopColor3dcfa4 svgShape"></stop><stop offset="1" stop-color="#30bb93" class="stopColor30bb93 svgShape"></stop></linearGradient><path fill="url(#o)" d="M255.354 376.906s11.281-27.613 27.634-32.81c0 0-12.42 24.863-13.248 32.81h-14.386z"></path><linearGradient id="p" x1="253.178" x2="253.178" y1="346.897" y2="368.814" gradientUnits="userSpaceOnUse"><stop offset="0" stop-color="#3dcfa4" class="stopColor3dcfa4 svgShape"></stop><stop offset="1" stop-color="#30bb93" class="stopColor30bb93 svgShape"></stop></linearGradient><path fill="url(#p)" d="M272.221 331.88s-10.042 36.845-9.824 45.021h-15.739s-4.96-40.675-12.522-53.197c0 0 17.292 11.078 21.843 30.646 0 0 3.106-16.775 16.242-22.47z"></path><linearGradient id="q" x1="1230.692" x2="1226.268" y1="131.563" y2="131.409" gradientTransform="matrix(-1 0 0 1 1401.688 0)" gradientUnits="userSpaceOnUse"><stop offset="0" stop-color="#fadf68" class="stopColorfadf68 svgShape"></stop><stop offset="1" stop-color="#eac250" class="stopColoreac250 svgShape"></stop></linearGradient><path fill="url(#q)" d="M170.654 108.477h1.581a5.317 5.317 0 0 1 5.317 5.317v35.504a5.317 5.317 0 0 1-5.317 5.317h-1.581v-46.138z"></path><linearGradient id="r" x1="1239.097" x2="1263.486" y1="115.731" y2="152.065" gradientTransform="matrix(-1 0 0 1 1401.688 0)" gradientUnits="userSpaceOnUse"><stop offset="0" stop-color="#fadf68" class="stopColorfadf68 svgShape"></stop><stop offset="1" stop-color="#eac250" class="stopColoreac250 svgShape"></stop></linearGradient><path fill="url(#r)" d="M133.718 154.615h36.514a4.812 4.812 0 0 0 4.812-4.812V113.29a4.812 4.812 0 0 0-4.812-4.812h-36.514a4.812 4.812 0 0 0-4.812 4.812v36.514a4.812 4.812 0 0 0 4.812 4.812z"></path><path fill="#ffffff" d="M161.422 137.476c4.174-4.174 4.174-10.965 0-15.14-4.174-4.173-10.965-4.173-15.139 0-3.445 3.446-4.038 8.67-1.796 12.739l-5.336 5.335a2.968 2.968 0 0 0 4.197 4.197l5.336-5.336c4.068 2.243 9.293 1.65 12.738-1.795zm-11.965-3.175a6.222 6.222 0 0 1 0-8.79 6.222 6.222 0 0 1 8.79 0 6.223 6.223 0 0 1 0 8.79 6.223 6.223 0 0 1-8.79 0z" class="colorfff svgShape"></path><path fill="#cedcf9" d="M512.528 129.608c0 8.681-6.207 15.914-14.42 17.502-2.013.327-4.042.45-6.061.114a12.3 12.3 0 0 1-.817-.14c-8.175-1.62-14.331-8.826-14.331-17.476 0-9.839 7.972-17.818 17.818-17.818 9.839 0 17.811 7.979 17.811 17.818z" class="colorcedcf9 svgShape"></path><path fill="#657bff" d="M505.372 128.248a10.662 10.662 0 0 0-4.821-8.713l.12 6.372-5.91 4.79-6.1-4.556-.12-6.378a10.67 10.67 0 0 0-4.48 8.896 10.654 10.654 0 0 0 7.827 10.067l.159 8.498c2.008.335 4.027.216 6.061-.114l-.17-8.504a10.651 10.651 0 0 0 7.434-10.358z" class="color657bff svgShape"></path><path fill="#b2c7ff" d="M496.495 147.337c-.877.082-1.944.125-2.829.051l-.107-5.448a1.43 1.43 0 0 1 1.385-1.442h.032a1.414 1.414 0 0 1 1.411 1.385l.108 5.454z" class="colorb2c7ff svgShape"></path><path d="M496.292 141.402a1.403 1.403 0 0 0-1.639.291c-.253.26-.398.614-.392 1.007l.082 4.72c-.227 0-.449-.013-.677-.032l-.107-5.448a1.427 1.427 0 0 1 1.385-1.442h.032c.56 0 1.095.338 1.316.904z" opacity=".05" fill="#000000" class="color000 svgShape"></path></svg>