<svg xmlns="http://www.w3.org/2000/svg" viewBox="0 0 4680 3120" width="550" height="550"><g data-name="9" fill="#000000" class="color000 svgShape"><rect width="4680" height="3120" fill="#ffffff" data-name="9" opacity="0" class="colorfff svgShape"></rect><ellipse cx="2295.9" cy="2696.88" fill="#a4dad9" rx="1493.1" ry="135.96" class="colora4dad9 svgShape"></ellipse><path fill="#4cbd99" d="M1053.69,455.67h252.4a0,0,0,0,1,0,0V1472.58a7.54,7.54,0,0,1-7.54,7.54H1061.23a7.54,7.54,0,0,1-7.54-7.54V455.67A0,0,0,0,1,1053.69,455.67Z" class="color4cbd99 svgShape"></path><path fill="#4cbd99" d="M1034.58,437.63H1271a8,8,0,0,1,8,8v1001a15.52,15.52,0,0,1-15.52,15.52H1042.12a15.52,15.52,0,0,1-15.52-15.52V445.6A8,8,0,0,1,1034.58,437.63Z" opacity=".3" class="color4cbd99 svgShape"></path><path fill="#8076b6" d="M1058.87,423.08h242a5.18,5.18,0,0,1,5.18,5.18v27.41a0,0,0,0,1,0,0h-252.4a0,0,0,0,1,0,0V428.26A5.18,5.18,0,0,1,1058.87,423.08Z" class="color8076b6 svgShape"></path><path fill="#a4dad9" d="M1102.41,548.31l3.7-56.38,39.78,40.15-25.65-2.34Zm5.87-50.56-2.87,43.75,13.84-14.4,19.91,1.81Z" class="colora4dad9 svgShape"></path><polygon fill="#a4dad9" points="1213.34 494.84 1231 512.67 1248.66 530.49 1225.89 528.42 1210.06 544.9 1211.7 519.87 1213.34 494.84" class="colora4dad9 svgShape"></polygon><rect width="27.02" height="11.13" x="1125.6" y="612.54" fill="#a4dad9" transform="rotate(-135.02 1139.15 618.074)" class="colora4dad9 svgShape"></rect><polygon fill="#a4dad9" points="1142.1 632.24 1136.82 645.09 1102.26 661.49 1099.82 659.05 1134.38 624.52 1142.1 632.24" class="colora4dad9 svgShape"></polygon><polygon fill="#a4dad9" points="1124.97 615.12 1112.11 620.39 1095.69 654.92 1098.13 657.36 1132.69 622.83 1124.97 615.12" class="colora4dad9 svgShape"></polygon><rect width="27.02" height="11.13" x="1236.82" y="612.54" fill="#a4dad9" transform="rotate(-135.02 1250.368 618.07)" class="colora4dad9 svgShape"></rect><polygon fill="#a4dad9" points="1253.32 632.24 1248.04 645.09 1213.48 661.49 1211.04 659.05 1245.6 624.52 1253.32 632.24" class="colora4dad9 svgShape"></polygon><polygon fill="#a4dad9" points="1236.18 615.12 1223.33 620.39 1206.91 654.92 1209.35 657.36 1243.9 622.83 1236.18 615.12" class="colora4dad9 svgShape"></polygon><path fill="#a4dad9" d="M1205.21 660.41a10.42 10.42 0 01-6.69-2.12c-2.94-2.41-4.1-6.7-3.45-12.76.45-4.23 2.38-9 4.42-14 4.22-10.41 8.59-21.18 1.43-29.7a.75.75 0 111.14-1c7.75 9.21 3 20.91-1.19 31.22-2 4.94-3.89 9.61-4.32 13.62-.58 5.53.4 9.38 2.92 11.45 3.73 3.06 9.7 1.25 9.75 1.23a.75.75 0 01.94.49.74.74 0 01-.49.93A16.12 16.12 0 011205.21 660.41zM1118.55 728.28h-2.71c-2.47 0-7.11.08-10.36 1.24-1.7 1.23-5.11 6-7 8.73-.23.38-.46.62-.77.54l-1.7-.62a.54.54 0 01-.31-.69c.85-3.25 3.4-13.45 3.71-15 .23-1 .62-1.32 1.16-1.32s.77.31 1.47 1.16c.85 1.08 2.32 1.78 5.1 1.93 4.1.23 7.35.47 15.39.47H1127c8.43 0 11.75-.31 15-.47 1.7-.07 4.72-1 5.64-1.93.78-.77 1.24-1.16 1.78-1.16s.78.31.93 1.24l2.32 15.37a.59.59 0 01-.31.7l-1.62.62c-.31.08-.47-.16-.78-.7a52.47 52.47 0 00-6.65-8.65c-1.93-1.16-8.81-1.47-10.59-1.47h-2.55v21.25c0 1.08 0 22.72.07 23.88.16 1.93.78 3.09 2.63 3.09h3.48c.7 0 .78.23.78.77v1.78c0 .38-.08.61-.78.61s-3.24-.23-11.83-.23c-8.2 0-11.44.23-12.53.23-.62 0-.69-.3-.69-.92v-1.47c0-.54.07-.77.54-.77h3.94a2.45 2.45 0 002.63-2.32c.16-1.62.16-25.35.16-26.81zM1202.11 779.34a1.7 1.7 0 01-1.2-2.9l54.5-54.45a1.7 1.7 0 012.4 0 1.68 1.68 0 010 2.4l-54.5 54.46A1.68 1.68 0 011202.11 779.34zM1153.92 912.58h-59.54a1.7 1.7 0 01-1.7-1.7V851.4a1.7 1.7 0 011.7-1.7h59.54a1.7 1.7 0 011.7 1.7v59.48A1.7 1.7 0 011153.92 912.58zm-57.84-3.39h56.14v-56.1h-56.14z" class="colora4dad9 svgShape"></path><rect width="16.23" height="64.82" x="1224.41" y="841.68" fill="#a4dad9" transform="rotate(-135.02 1232.572 874.057)" class="colora4dad9 svgShape"></rect><polygon fill="#a4dad9" points="1197.53 909.05 1199.71 900.9 1201.9 892.76 1207.87 898.72 1213.84 904.69 1205.68 906.87 1197.53 909.05" class="colora4dad9 svgShape"></polygon><rect width="14.7" height="58.68" x="1125.74" y="988.64" fill="#a4dad9" transform="rotate(-135.02 1133.132 1017.964)" class="colora4dad9 svgShape"></rect><polygon fill="#a4dad9" points="1101.4 1049.64 1103.38 1042.27 1105.36 1034.89 1110.77 1040.29 1116.17 1045.69 1108.79 1047.67 1101.4 1049.64" class="colora4dad9 svgShape"></polygon><path fill="#a4dad9" d="M1115,1032.76a25.75,25.75,0,1,1,25.77-25.75A25.79,25.79,0,0,1,1115,1032.76Zm0-48.1a22.35,22.35,0,1,0,22.37,22.35A22.38,22.38,0,0,0,1115,984.66Z" class="colora4dad9 svgShape"></path><rect width="50.7" height="50.7" x="1209.01" y="981.01" fill="#ba2027" transform="rotate(-135.02 1234.41 1006.332)" class="colorba2027 svgShape"></rect><path fill="#ba2027" d="M1219 1052.19a1.72 1.72 0 01-1.21-.5L1189 1022.88a1.68 1.68 0 01-.5-1.2 1.7 1.7 0 01.5-1.2l17.64-17.62a1.7 1.7 0 012.4 0l28.83 28.81a1.68 1.68 0 010 2.4l-17.63 17.62A1.7 1.7 0 011219 1052.19zm-26.43-30.51l26.43 26.41 15.22-15.22-26.42-26.4zM1157.47 1176.37h-46a1.7 1.7 0 01-1.7-1.7v-45.91a1.7 1.7 0 011.7-1.7h46a1.7 1.7 0 011.7 1.7v45.91A1.7 1.7 0 011157.47 1176.37zm-44.25-3.4h42.55v-42.51h-42.55zM1111.52 1124.21a1.7 1.7 0 01-1.7-1.7V1107.8a1.7 1.7 0 113.4 0v14.71A1.7 1.7 0 011111.52 1124.21zM1105.55 1130.57h-14.72a1.7 1.7 0 110-3.4h14.72a1.7 1.7 0 110 3.4z" class="colorba2027 svgShape"></path><polygon fill="#ba2027" points="1157.47 1128.76 1142.26 1128.24 1157.47 1140.53 1157.47 1128.76" class="colorba2027 svgShape"></polygon><path fill="#ba2027" d="M1221.18,1156.82a20,20,0,1,1,14.13-5.85A19.9,19.9,0,0,1,1221.18,1156.82Zm0-36.55a16.59,16.59,0,1,0,11.73,4.86h0A16.49,16.49,0,0,0,1221.18,1120.27Z" class="colorba2027 svgShape"></path><rect width="11.81" height="31.78" x="1238.66" y="1144.46" fill="#ba2027" rx=".94" transform="rotate(-44.98 1244.436 1160.3)" class="colorba2027 svgShape"></rect><rect width="230.54" height="3.05" x="1064.36" y="1300.48" fill="#ba2027" class="colorba2027 svgShape"></rect><rect width="72.61" height="72.55" x="1125.18" y="1333.49" fill="#47a2da" class="color47a2da svgShape"></rect><path fill="#ba2027" d="M1199.31,1407.56h-75.66V1332h75.66Zm-72.61-3h69.56V1335H1126.7Z" class="colorba2027 svgShape"></path><rect width="72.61" height="72.55" x="1161.48" y="1368.52" fill="#fab59b" class="colorfab59b svgShape"></rect><path fill="#ba2027" d="M1235.62 1442.6H1160V1367h75.66zm-72.61-3h69.56v-69.5H1163zM1164.24 1259.94a5.91 5.91 0 11-5.91-5.9A5.92 5.92 0 011164.24 1259.94zM1185.54 1259.94a5.91 5.91 0 11-5.91-5.9A5.91 5.91 0 011185.54 1259.94zM1206.85 1259.94a5.91 5.91 0 11-5.91-5.9A5.92 5.92 0 011206.85 1259.94z" class="colorba2027 svgShape"></path><path fill="#396db4" d="M3719.81,409.1V1637c0,49.83-28.75,92.7-69.8,111.67l-1.61.69a114.67,114.67,0,0,1-31.93,8.82,105.08,105.08,0,0,1-13.52.81H1536.64a104,104,0,0,1-13.57-.81,116.08,116.08,0,0,1-31.93-8.76c-.55-.29-1.11-.52-1.67-.75-41.1-19-69.8-61.84-69.8-111.67V409.1c0-67.23,52.5-121.93,117-121.93H3603C3667.36,287.17,3719.81,341.87,3719.81,409.1Z" class="color396db4 svgShape"></path><path fill="#ffffff" d="M3598.39,365.7H1541.2a50.18,50.18,0,0,0-50.06,50.18V1688.09a120.3,120.3,0,0,0,31.93,8.4,109.64,109.64,0,0,0,13.57.77H3603a110.74,110.74,0,0,0,13.52-.77,119.09,119.09,0,0,0,31.93-8.45V415.88A50.14,50.14,0,0,0,3598.39,365.7Z" class="colorfff svgShape"></path><path fill="#2cb0db" d="M3650,417.26v59.63H1489.49V417.26c0-33.27,21.15-60.36,47.13-60.36H3602.93C3628.83,356.9,3650,384,3650,417.26Z" class="color2cb0db svgShape"></path><path fill="#fbaf29" d="M1617.67,417.26a14.95,14.95,0,1,1,14.94,14.93A14.94,14.94,0,0,1,1617.67,417.26Z" class="colorfbaf29 svgShape"></path><ellipse cx="1680.01" cy="417.26" fill="#85a33d" rx="14.95" ry="14.94" class="color85a33d svgShape"></ellipse><rect width="1777.69" height="23.68" x="1754.94" y="403.28" fill="#475aa7" rx="11.5" class="color475aa7 svgShape"></rect><rect width="130.55" height="23.12" x="1941.96" y="403.28" fill="#ffffff" rx="11.22" class="colorfff svgShape"></rect><ellipse cx="1585.22" cy="417.26" fill="#eb4647" rx="14.95" ry="14.94" class="coloreb4647 svgShape"></ellipse><polygon fill="#5c509d" points="3540.1 556.73 2104.96 556.73 2104.14 905.88 3539.28 905.88 3540.1 556.73" class="color5c509d svgShape"></polygon><polygon fill="#958dc4" points="3539.37 866.29 3214.26 750.57 2928.58 847.32 2409.09 666 2104.47 763.48 2104.13 908.12 3539.27 908.12 3539.37 866.29" class="color958dc4 svgShape"></polygon><path fill="#ffffff" d="M3485.6,588H3165.72a22.16,22.16,0,1,0-.11,44.32H3485.5a22.16,22.16,0,1,0,.1-44.32Z" class="colorfff svgShape"></path><path fill="#d0e5ed" d="M3173.91 615a3.58 3.58 0 00-3.54 3.54 3.57 3.57 0 007.13 0A3.6 3.6 0 003173.91 615zM3207.53 615a3.5 3.5 0 00-3.48 3.54 3.36 3.36 0 003.48 3.49 3.5 3.5 0 003.54-3.49A3.55 3.55 0 003207.53 615zM3241.16 615a3.59 3.59 0 00-3.54 3.54 3.47 3.47 0 003.54 3.49 3.51 3.51 0 003.59-3.49A3.59 3.59 0 003241.16 615zM3475.52 598.62a8.22 8.22 0 100 16.43 7.5 7.5 0 004.68-1.61h.05a5.61 5.61 0 002.29-2.55 6.72 6.72 0 001.2-4A8.2 8.2 0 003475.52 598.62zm0 13a4.77 4.77 0 01-4.79-4.78 4.84 4.84 0 014.79-4.79 4.79 4.79 0 010 9.57z" class="colord0e5ed svgShape"></path><rect width="3.47" height="10.34" x="3482.16" y="609.51" fill="#d0e5ed" transform="rotate(-44.94 3484.014 614.647)" class="colord0e5ed svgShape"></rect><path fill="#fbaf29" d="M3051.78,691.94a53.59,53.59,0,1,1-53.47-53.55A53.72,53.72,0,0,1,3051.78,691.94Z" class="colorfbaf29 svgShape"></path><polygon fill="#ffffff" points="2780.82 809.1 2767.68 809.13 2767.68 796 2780.82 795.96 2780.82 809.1" class="colorfff svgShape"></polygon><polygon fill="#ffffff" points="2273.15 809.1 2260.01 809.13 2260.01 796 2273.15 795.96 2273.15 809.1" class="colorfff svgShape"></polygon><polygon fill="#ffffff" points="2780.8 634.82 2767.66 634.85 2767.66 621.72 2780.8 621.69 2780.8 634.82" class="colorfff svgShape"></polygon><polygon fill="#ffffff" points="2527.18 634.82 2514.04 634.85 2514.04 621.72 2527.18 621.69 2527.18 634.82" class="colorfff svgShape"></polygon><polygon fill="#ffffff" points="2526.77 809.1 2513.63 809.13 2513.63 796 2526.77 795.97 2526.77 809.1" class="colorfff svgShape"></polygon><polygon fill="#ffffff" points="2273.14 720.49 2259.99 720.52 2259.99 707.39 2273.14 707.36 2273.14 720.49" class="colorfff svgShape"></polygon><polygon fill="#ffffff" points="2780.81 719.26 2767.67 719.29 2767.67 706.16 2780.81 706.13 2780.81 719.26" class="colorfff svgShape"></polygon><polygon fill="#ffffff" points="2273.13 634.82 2259.99 634.85 2259.99 621.72 2273.13 621.69 2273.13 634.82" class="colorfff svgShape"></polygon><path fill="#ffffff" d="M2410.61 666.5h-3.12l-29.1.1v13.63l29-.06v73.5l16.13-.11V680.12l25.82 0h3.07V666.39zM2518.89 720.48a37.1 37.1 0 00-4.11-17.58v0c-5.62-10.4-16.35-16.69-29.52-16.59a36.08 36.08 0 00-12.28 2h-.05c-13.28 4.57-22.13 16.59-22 32 0 19.76 14.42 34.07 36.76 34 11.45-.05 20.77-3.79 26.75-10.86l-8.38-9.63c-4.68 4.89-10.57 7.23-18 7.23-11.61.1-19.73-6.19-21.6-15.81l52.26-.1C2518.78 723.6 2518.89 721.73 2518.89 720.48zm-52.58-5.61c1.46-9.68 8.85-16.18 19-16.18s17.54 6.56 18.79 16.12zM2567.46 721.32v-.05l-1.56-2 24.93-32.56H2574l-16.35 21.84-16.29-21.79-17.34.1L2543.72 713l.05.06.11.05 4.94 6.5L2523 753.36h17.13l17.23-23.15 17.07 23h17.54zM2642.68 747.53l-3.65-9.15a13.52 13.52 0 01-8.69 2.8c-6 0-9.26-3.48-9.26-10V699.57l17.85-.05V687.09h-17.85V672h-15.52v15.18h-11l.1 12.54 10.93-.11v32a18.24 18.24 0 00.21 3v0c1 12.64 9.21 19.35 22.7 19.3 5.62 0 11.24-1.51 15-4.52zM2776.75 805.05h-7.52a2.51 2.51 0 110-5h2.51v-2.5a2.51 2.51 0 015 0zM2749.34 800h-9.94a2.52 2.52 0 00-2.55 2.55 2.49 2.49 0 002.44 2.5h10a2.53 2.53 0 10.05-5zm-29.88 0h-10a2.53 2.53 0 000 5h10a2.53 2.53 0 000-5zm-29.93 0h-9.94a2.59 2.59 0 00-2.55 2.55 2.54 2.54 0 002.55 2.5h9.94a2.53 2.53 0 000-5zm-29.88 0h-9.94a2.53 2.53 0 000 5h9.94a2.62 2.62 0 002.55-2.5A2.52 2.52 0 002659.65 800zm-29.88 0h-10a2.53 2.53 0 000 5h10a2.53 2.53 0 100-5zm-29.88 0H2590a2.53 2.53 0 00-.06 5h10a2.53 2.53 0 000-5zM2570 800h-9.94a2.53 2.53 0 100 5H2570a2.53 2.53 0 10.05-5zm-29.88 0h-9.94a2.59 2.59 0 00-2.55 2.55 2.51 2.51 0 002.55 2.5h9.94a2.53 2.53 0 000-5zm-29.88 0h-10a2.59 2.59 0 00-2.5 2.55 2.51 2.51 0 002.5 2.5h10a2.53 2.53 0 000-5zm-29.88 0h-10a2.53 2.53 0 000 5h10a2.53 2.53 0 000-5zm-29.93 0h-10a2.53 2.53 0 000 5h10a2.58 2.58 0 002.55-2.5A2.53 2.53 0 002450.44 800zm-29.83 0h-10a2.53 2.53 0 000 5h9.95a2.53 2.53 0 10.05-5zm-29.88 0h-10a2.53 2.53 0 000 5h9.95a2.53 2.53 0 00.05-5zm-29.88 0h-10a2.59 2.59 0 00-2.55 2.55 2.55 2.55 0 002.55 2.5h10a2.53 2.53 0 000-5zm-29.93 0h-10a2.55 2.55 0 00-2.5 2.55 2.51 2.51 0 002.5 2.5h10a2.53 2.53 0 000-5zM2301 800h-9.95a2.53 2.53 0 000 5H2301a2.62 2.62 0 002.55-2.5A2.56 2.56 0 002301 800zM2271.15 805.05h-7.51v-7.51a2.52 2.52 0 012.51-2.5 2.49 2.49 0 012.5 2.5V800h2.5a2.51 2.51 0 110 5zM2266.26 766a2.55 2.55 0 00-2.55 2.55v9.68a2.5 2.5 0 005 0v-9.68A2.53 2.53 0 002266.26 766zm0-28.92a2.52 2.52 0 00-2.55 2.5v9.62a2.53 2.53 0 105 0v-9.62A2.5 2.5 0 002266.31 737.07zm.06-29a2.58 2.58 0 00-2.55 2.5v9.73a.2.2 0 00.1.2v.06a2.35 2.35 0 002.39 2.18 2.45 2.45 0 002.5-2.24.26.26 0 00.06-.2v-9.73A2.54 2.54 0 002266.37 708.05zm.05-29a2.5 2.5 0 00-2.5 2.5v9.67a2.48 2.48 0 002.45 2.5 2.51 2.51 0 002.55-2.5v-9.67A2.47 2.47 0 002266.42 679.08zm.1-29a2.5 2.5 0 00-2.5 2.5l-.05 9.62a2.49 2.49 0 002.55 2.55 2.47 2.47 0 002.45-2.55v-9.62A2.45 2.45 0 002266.52 650.11zM2266.54 635.78a2.49 2.49 0 01-2.5-2.5l0-7.51h7.51a2.5 2.5 0 110 5h-2.5v2.51A2.51 2.51 0 012266.54 635.78zM2749.71 625.77h-9.95a2.5 2.5 0 100 5h9.95a2.52 2.52 0 002.54-2.44A2.48 2.48 0 002749.71 625.77zm-29.89 0h-10a2.47 2.47 0 00-2.45 2.55 2.45 2.45 0 002.45 2.44h10a2.5 2.5 0 100-5zm-29.82 0h-10a2.48 2.48 0 00-2.5 2.55 2.45 2.45 0 002.45 2.44h10a2.5 2.5 0 00.05-5zm-29.88 0h-10a2.55 2.55 0 00-2.55 2.55 2.5 2.5 0 002.55 2.44h10a2.44 2.44 0 002.44-2.44A2.46 2.46 0 002660.12 625.77zm-29.93 0h-10a2.55 2.55 0 00-2.55 2.55 2.46 2.46 0 002.55 2.44h10a2.5 2.5 0 000-5zm-29.89 0h-10a2.47 2.47 0 00-2.45 2.55 2.45 2.45 0 002.45 2.44h10a2.61 2.61 0 002.56-2.44A2.52 2.52 0 002600.3 625.77zm-29.87 0h-10a2.47 2.47 0 00-2.45 2.55 2.45 2.45 0 002.45 2.44h10a2.5 2.5 0 000-5zm-29.94 0h-9.89a2.52 2.52 0 00-2.55 2.55 2.49 2.49 0 002.5 2.44h9.94a2.5 2.5 0 100-5zm-29.82 0h-10a2.5 2.5 0 100 5h9.89a2.5 2.5 0 10.06-5zm-29.89 0h-10a2.48 2.48 0 00-2.5 2.55 2.45 2.45 0 002.5 2.44h10a2.44 2.44 0 002.45-2.44A2.47 2.47 0 002480.78 625.77zm-29.88 0h-10a2.62 2.62 0 00-2.55 2.55 2.49 2.49 0 002.55 2.44h10a2.44 2.44 0 002.45-2.44A2.47 2.47 0 002450.9 625.77zm-29.93 0H2411a2.5 2.5 0 100 5H2421a2.5 2.5 0 100-5zm-29.88 0h-9.94a2.48 2.48 0 00-2.5 2.55 2.45 2.45 0 002.5 2.44h9.94a2.5 2.5 0 100-5zm-29.82 0h-10a2.48 2.48 0 00-2.5 2.55 2.45 2.45 0 002.45 2.44h10a2.5 2.5 0 00.06-5zm-29.89 0h-10a2.52 2.52 0 00-2.55 2.55 2.48 2.48 0 002.5 2.44h9.94a2.5 2.5 0 10.1-5zm-29.93 0h-9.94a2.55 2.55 0 00-2.55 2.55 2.5 2.5 0 002.55 2.44h9.94a2.5 2.5 0 100-5zM2774.64 635.78a2.5 2.5 0 01-2.5-2.5v-2.51h-2.51a2.5 2.5 0 110-5h7.52l0 7.51A2.5 2.5 0 012774.64 635.78zM2774.33 766a2.54 2.54 0 00-2.5 2.55v9.68a2.48 2.48 0 002.44 2.49 2.51 2.51 0 002.56-2.49v-9.68A2.55 2.55 0 002774.33 766zm.1-28.92a2.52 2.52 0 00-2.55 2.5v9.62a2.5 2.5 0 002.45 2.55 2.52 2.52 0 002.55-2.55v-9.62A2.47 2.47 0 002774.43 737.07zm.05-29a2.58 2.58 0 00-2.55 2.5v9.73a2.5 2.5 0 005 0v-9.73A2.49 2.49 0 002774.48 708.05zm.06-29a2.49 2.49 0 00-2.5 2.5l-.06 9.67a2.53 2.53 0 005.05 0v-9.67A2.46 2.46 0 002774.54 679.08zm.05-29a2.48 2.48 0 00-2.45 2.5l-.1 9.62a2.53 2.53 0 105.05 0l0-9.62A2.51 2.51 0 002774.59 650.11z" class="colorfff svgShape"></path><polygon fill="#ffffff" points="2448.97 818.64 2456.61 857.73 2462.99 846.83 2467.72 854.01 2474.55 849.62 2469.83 842.44 2482.37 840.61 2448.97 818.64" class="colorfff svgShape"></polygon><rect width="261.74" height="259.77" x="2118.39" y="990.1" fill="#de333d" rx="6.69" class="colorde333d svgShape"></rect><path fill="#eb4647" d="M2389.31,1270.33H2109.2a11.4,11.4,0,0,1-11.39-11.39V981a11.4,11.4,0,0,1,11.39-11.38h280.11A11.4,11.4,0,0,1,2400.7,981v277.91A11.4,11.4,0,0,1,2389.31,1270.33ZM2109.2,978.63a2.41,2.41,0,0,0-2.4,2.4v277.91a2.4,2.4,0,0,0,2.4,2.4h280.11a2.39,2.39,0,0,0,2.4-2.4V981a2.4,2.4,0,0,0-2.4-2.4Z" class="coloreb4647 svgShape"></path><path fill="#ffffff" d="M2177.73,1174.64h71.17a7.23,7.23,0,0,0,6-11.3L2219.3,1111a7.24,7.24,0,0,0-12,0l-35.59,52.33A7.24,7.24,0,0,0,2177.73,1174.64Z" class="colorfff svgShape"></path><path fill="#ffffff" d="M2244.53 1174.64h71.18a7.24 7.24 0 006-11.3L2286.1 1111a7.23 7.23 0 00-12 0l-35.59 52.33A7.23 7.23 0 002244.53 1174.64zM2259.61 1079a13.67 13.67 0 11-13.66-13.66A13.66 13.66 0 012259.61 1079z" class="colorfff svgShape"></path><rect width="261.74" height="259.77" x="2115.17" y="1343.09" fill="#2fb88f" rx="6.69" class="color2fb88f svgShape"></rect><path fill="#2fb88f" d="M2386.1,1623.32H2106a11.4,11.4,0,0,1-11.39-11.38V1334a11.4,11.4,0,0,1,11.39-11.38H2386.1a11.4,11.4,0,0,1,11.39,11.38v277.92A11.4,11.4,0,0,1,2386.1,1623.32ZM2106,1331.62a2.41,2.41,0,0,0-2.4,2.4v277.92a2.41,2.41,0,0,0,2.4,2.4H2386.1a2.41,2.41,0,0,0,2.4-2.4V1334a2.41,2.41,0,0,0-2.4-2.4Z" class="color2fb88f svgShape"></path><path fill="#ffffff" d="M2174.51,1527.63h71.18a7.23,7.23,0,0,0,6-11.3L2216.08,1464a7.23,7.23,0,0,0-12,0l-35.59,52.33A7.24,7.24,0,0,0,2174.51,1527.63Z" class="colorfff svgShape"></path><path fill="#ffffff" d="M2241.32 1527.63h71.18a7.24 7.24 0 006-11.3L2282.89 1464a7.24 7.24 0 00-12 0l-35.58 52.33A7.23 7.23 0 002241.32 1527.63zM2256.4 1432a13.67 13.67 0 11-13.66-13.66A13.66 13.66 0 012256.4 1432z" class="colorfff svgShape"></path><path fill="#21657e" d="M2430.85,1230.57,2377.33,1284a3.42,3.42,0,0,1-5.73-1.59l-17.72-71.22A3.41,3.41,0,0,1,2358,1207l71.25,17.84A3.41,3.41,0,0,1,2430.85,1230.57Z" class="color21657e svgShape"></path><rect width="17.86" height="64.76" x="2402.62" y="1232.34" fill="#21657e" rx="1.11" transform="rotate(135.08 2411.549 1264.673)" class="color21657e svgShape"></rect><path fill="#9edbed" d="M3125.42,1145.87h-649.8a7.68,7.68,0,0,1-7.68-7.68h0a7.68,7.68,0,0,1,7.68-7.68h649.8a7.68,7.68,0,0,1,7.69,7.68h0A7.68,7.68,0,0,1,3125.42,1145.87Z" class="color9edbed svgShape"></path><rect width="339.67" height="15.39" x="2467.94" y="1169.77" fill="#9edbed" rx="7.68" class="color9edbed svgShape"></rect><path fill="#9edbed" d="M3125.42 1185.16H2839.08a7.68 7.68 0 01-7.69-7.68v0a7.68 7.68 0 017.69-7.68h286.34a7.68 7.68 0 017.69 7.68v0A7.68 7.68 0 013125.42 1185.16zM2603.28 1224.43H2475.62a7.68 7.68 0 01-7.68-7.68v0a7.68 7.68 0 017.68-7.68h127.66a7.68 7.68 0 017.69 7.68v0A7.68 7.68 0 012603.28 1224.43zM2887.91 1224.43H2641a7.68 7.68 0 01-7.68-7.68v0A7.68 7.68 0 012641 1209h246.87a7.68 7.68 0 017.69 7.68v0A7.68 7.68 0 012887.91 1224.43z" class="color9edbed svgShape"></path><path fill="#3fc0e4" d="M2999.49 1020.6H2486.68a18.73 18.73 0 01-18.74-18.72v0a18.73 18.73 0 0118.74-18.73h512.81a18.74 18.74 0 0118.75 18.73v0A18.74 18.74 0 012999.49 1020.6zM2712 1080.82H2486.68a18.73 18.73 0 01-18.74-18.73h0a18.73 18.73 0 0118.74-18.72H2712a18.73 18.73 0 0118.74 18.72h0A18.73 18.73 0 012712 1080.82z" class="color3fc0e4 svgShape"></path><path fill="#f9c854" d="M2823.17,1356.79H2490.64a18.73,18.73,0,0,1-18.75-18.72h0a18.73,18.73,0,0,1,18.75-18.73h332.53a18.73,18.73,0,0,1,18.75,18.73h0A18.73,18.73,0,0,1,2823.17,1356.79Z" class="colorf9c854 svgShape"></path><path fill="#9edbed" d="M3127.56 1415.43H2477.77a7.68 7.68 0 01-7.69-7.68h0a7.68 7.68 0 017.69-7.68h649.79a7.68 7.68 0 017.69 7.68h0A7.68 7.68 0 013127.56 1415.43zM3127.56 1534.7H2477.77a7.68 7.68 0 01-7.69-7.68h0a7.68 7.68 0 017.69-7.68h649.79a7.68 7.68 0 017.69 7.68h0A7.68 7.68 0 013127.56 1534.7zM3124.35 1574.28h-649.8a7.68 7.68 0 01-7.68-7.68h0a7.68 7.68 0 017.68-7.68h649.8a7.68 7.68 0 017.69 7.68h0A7.68 7.68 0 013124.35 1574.28zM2802.06 1454.72H2477.77a7.68 7.68 0 01-7.69-7.68v0a7.68 7.68 0 017.69-7.68h324.29a7.68 7.68 0 017.69 7.68v0A7.68 7.68 0 012802.06 1454.72zM3127.56 1454.72H2841.22a7.68 7.68 0 01-7.69-7.68v0a7.68 7.68 0 017.69-7.68h286.34a7.68 7.68 0 017.69 7.68v0A7.68 7.68 0 013127.56 1454.72zM2605.42 1494H2477.77a7.68 7.68 0 01-7.69-7.68v0a7.68 7.68 0 017.69-7.68h127.65a7.68 7.68 0 017.69 7.68v0A7.68 7.68 0 012605.42 1494zM2890.05 1494H2643.19a7.68 7.68 0 01-7.69-7.68v0a7.68 7.68 0 017.69-7.68h246.86a7.68 7.68 0 017.69 7.68v0A7.68 7.68 0 012890.05 1494z" class="color9edbed svgShape"></path><rect width="143.03" height="15.39" x="2469.28" y="1600.94" fill="#9edbed" rx="7.69" class="color9edbed svgShape"></rect><rect width="262.24" height="15.39" x="2634.7" y="1600.94" fill="#9edbed" rx="7.69" class="color9edbed svgShape"></rect><rect width="343.39" height="500.88" x="3205.25" y="1120.31" fill="#d51c5c" class="colord51c5c svgShape"></rect><path fill="#fcb415" d="M3346.89,1407.66a13,13,0,0,1-13-13v-164a13,13,0,0,1,26.09,0v164A13,13,0,0,1,3346.89,1407.66Z" class="colorfcb415 svgShape"></path><path fill="#9edbed" d="M3346.89,1489.69a13,13,0,0,1-13-13v-82a13,13,0,0,1,26.09,0v82A13,13,0,0,1,3346.89,1489.69Z" class="color9edbed svgShape"></path><path fill="#2fb88f" d="M3473.62,1403.83a13,13,0,0,1-13-13V1178.53a13,13,0,0,1,26.09,0v212.26A13,13,0,0,1,3473.62,1403.83Z" class="color2fb88f svgShape"></path><path fill="#9edbed" d="M3473.62,1489.69a13,13,0,0,1-13-13v-85.87a13,13,0,0,1,26.09,0v85.87A13,13,0,0,1,3473.62,1489.69Z" class="color9edbed svgShape"></path><path fill="#958dc4" d="M3414.9,1359.4a13,13,0,0,1-13-13v-46.87a13,13,0,0,1,26.09,0v46.87A13,13,0,0,1,3414.9,1359.4Z" class="color958dc4 svgShape"></path><path fill="#9edbed" d="M3414.9,1489.69a13,13,0,0,1-13-13v-130.3a13,13,0,0,1,26.09,0v130.3A13,13,0,0,1,3414.9,1489.69Z" class="color9edbed svgShape"></path><path fill="#396db4" d="M3280.26,1359.4a13,13,0,0,1-13.05-13v-82.21a13.05,13.05,0,0,1,26.1,0v82.21A13,13,0,0,1,3280.26,1359.4Z" class="color396db4 svgShape"></path><path fill="#9edbed" d="M3280.26,1489.69a13,13,0,0,1-13.05-13v-130.3a13.05,13.05,0,0,1,26.1,0v130.3A13,13,0,0,1,3280.26,1489.69Z" class="color9edbed svgShape"></path><rect width="51.2" height="27.56" x="3243.77" y="1520.44" fill="#396db4" class="color396db4 svgShape"></rect><rect width="51.2" height="27.56" x="3243.77" y="1564.94" fill="#2fb88f" class="color2fb88f svgShape"></rect><rect width="51.2" height="27.56" x="3389.84" y="1520.44" fill="#fcb415" class="colorfcb415 svgShape"></rect><rect width="51.2" height="27.56" x="3389.84" y="1564.94" fill="#958dc4" class="color958dc4 svgShape"></rect><rect width="63.35" height="9.18" x="3305.24" y="1526.5" fill="#9edbed" class="color9edbed svgShape"></rect><rect width="63.35" height="9.18" x="3305.24" y="1575.92" fill="#9edbed" class="color9edbed svgShape"></rect><rect width="63.35" height="9.18" x="3449.78" y="1526.5" fill="#9edbed" class="color9edbed svgShape"></rect><rect width="63.35" height="9.18" x="3449.78" y="1575.92" fill="#9edbed" class="color9edbed svgShape"></rect><rect width="330.53" height="7.8" x="1698.04" y="1230.87" fill="#3fc0e4" transform="rotate(180 1863.31 1234.775)" class="color3fc0e4 svgShape"></rect><rect width="330.53" height="7.8" x="1698.04" y="1191.34" fill="#3fc0e4" transform="rotate(180 1863.31 1195.245)" class="color3fc0e4 svgShape"></rect><rect width="330.53" height="7.8" x="1698.04" y="1151.81" fill="#3fc0e4" transform="rotate(180 1863.31 1155.715)" class="color3fc0e4 svgShape"></rect><rect width="120.92" height="120.82" x="1555.9" y="1134.83" fill="#3fc0e4" transform="rotate(180 1616.355 1195.245)" class="color3fc0e4 svgShape"></rect><rect width="151.7" height="7.8" x="1698.04" y="1048.84" fill="#3fc0e4" transform="rotate(180 1773.895 1052.735)" class="color3fc0e4 svgShape"></rect><rect width="330.53" height="7.8" x="1698.04" y="1009.31" fill="#3fc0e4" transform="rotate(180 1863.31 1013.205)" class="color3fc0e4 svgShape"></rect><rect width="330.53" height="7.8" x="1698.04" y="969.78" fill="#3fc0e4" transform="rotate(180 1863.31 973.68)" class="color3fc0e4 svgShape"></rect><rect width="120.92" height="120.82" x="1555.9" y="952.8" fill="#3fc0e4" transform="rotate(180 1616.355 1013.205)" class="color3fc0e4 svgShape"></rect><rect width="330.53" height="7.8" x="1698.04" y="862.97" fill="#3fc0e4" transform="rotate(180 1863.31 866.865)" class="color3fc0e4 svgShape"></rect><rect width="330.53" height="7.8" x="1698.04" y="823.44" fill="#3fc0e4" transform="rotate(180 1863.31 827.335)" class="color3fc0e4 svgShape"></rect><rect width="330.53" height="7.8" x="1698.04" y="783.91" fill="#3fc0e4" transform="rotate(180 1863.31 787.805)" class="color3fc0e4 svgShape"></rect><rect width="120.92" height="120.82" x="1555.9" y="766.93" fill="#3fc0e4" transform="rotate(180 1616.355 827.335)" class="color3fc0e4 svgShape"></rect><rect width="330.53" height="7.8" x="1696.44" y="673.63" fill="#3fc0e4" transform="rotate(180 1861.7 677.535)" class="color3fc0e4 svgShape"></rect><rect width="330.53" height="7.8" x="1696.44" y="634.1" fill="#3fc0e4" transform="rotate(180 1861.7 638.005)" class="color3fc0e4 svgShape"></rect><rect width="330.53" height="7.8" x="1696.44" y="594.57" fill="#3fc0e4" transform="rotate(180 1861.7 598.475)" class="color3fc0e4 svgShape"></rect><rect width="120.92" height="120.82" x="1554.29" y="577.59" fill="#3fc0e4" transform="rotate(180 1614.75 638.005)" class="color3fc0e4 svgShape"></rect><rect width="151.7" height="7.8" x="1695.21" y="1586.99" fill="#3fc0e4" transform="rotate(180 1771.06 1590.89)" class="color3fc0e4 svgShape"></rect><rect width="330.53" height="7.8" x="1695.21" y="1547.46" fill="#3fc0e4" transform="rotate(180 1860.475 1551.36)" class="color3fc0e4 svgShape"></rect><rect width="330.53" height="7.8" x="1695.21" y="1507.93" fill="#3fc0e4" transform="rotate(180 1860.475 1511.835)" class="color3fc0e4 svgShape"></rect><rect width="120.92" height="120.82" x="1553.06" y="1490.95" fill="#3fc0e4" transform="rotate(180 1613.52 1551.36)" class="color3fc0e4 svgShape"></rect><rect width="330.53" height="7.8" x="1695.21" y="1401.12" fill="#3fc0e4" transform="rotate(180 1860.475 1405.02)" class="color3fc0e4 svgShape"></rect><rect width="330.53" height="7.8" x="1695.21" y="1361.59" fill="#3fc0e4" transform="rotate(180 1860.475 1365.49)" class="color3fc0e4 svgShape"></rect><rect width="330.53" height="7.8" x="1695.21" y="1322.06" fill="#3fc0e4" transform="rotate(180 1860.475 1325.96)" class="color3fc0e4 svgShape"></rect><rect width="120.92" height="120.82" x="1553.06" y="1305.08" fill="#3fc0e4" transform="rotate(180 1613.52 1365.49)" class="color3fc0e4 svgShape"></rect><path fill="#a4d1ec" d="M3202.34,2066.87v-97.1h-62.57a179.7,179.7,0,0,0-17.05-41l44.3-44.26-68.72-68.65-44.36,44.3a181.83,181.83,0,0,0-40.93-16.93v-62.68h-97.19v62.68a181.86,181.86,0,0,0-41,16.93l-44.33-44.3-68.72,68.65,44.27,44.26a180.57,180.57,0,0,0-17,41h-62.56v97.1h62.43a180.75,180.75,0,0,0,17,41.14l-44.12,44.08,68.72,68.67,44.06-44a181.12,181.12,0,0,0,41.23,17.08v62.25H3013v-62.25a180.78,180.78,0,0,0,41.21-17.08l44.08,44,68.72-68.67L3122.9,2108a181.63,181.63,0,0,0,17-41.14Zm-237.92,37.42c-117.81-7.08-107.26-168.15,0-171.5C3082.2,1939.86,3071.64,2100.94,2964.42,2104.29Z" class="colora4d1ec svgShape"></path><path fill="#9edbed" d="M3123.68,2018.52c-13.58-220.67-313.91-199.84-318.55,0C2818.72,2239.22,3119,2218.46,3123.68,2018.52Zm-159.26,85.77c-117.81-7.08-107.26-168.15,0-171.5C3082.2,1939.86,3071.64,2100.94,2964.42,2104.29Z" class="color9edbed svgShape"></path><path fill="#a4d1ec" d="M2696.28,2221.06v-59.72h-38.49a110.59,110.59,0,0,0-10.48-25.21l27.24-27.22-42.27-42.23L2605,2093.93a111.91,111.91,0,0,0-25.18-10.41V2045h-59.77v38.55a111.68,111.68,0,0,0-25.2,10.41l-27.27-27.25-42.26,42.23,27.22,27.22a111.5,111.5,0,0,0-10.48,25.21h-38.48v59.72H2442a111.51,111.51,0,0,0,10.47,25.31l-27.13,27.11,42.26,42.24,27.1-27.08a111.49,111.49,0,0,0,25.37,10.5v38.29h59.77v-38.29a111.41,111.41,0,0,0,25.36-10.5l27.1,27.08,42.27-42.24-27.13-27.11a111.94,111.94,0,0,0,10.46-25.31Zm-146.35,23c-72.46-4.35-66-103.43,0-105.49C2622.38,2142.94,2615.89,2242,2549.93,2244.08Z" class="colora4d1ec svgShape"></path><path fill="#9edbed" d="M2647.9,2191.33c-8.36-135.73-193.09-122.92-195.94,0C2460.32,2327.08,2645,2314.31,2647.9,2191.33Zm-98,52.75c-72.46-4.35-66-103.43,0-105.49C2622.38,2142.94,2615.89,2242,2549.93,2244.08Z" class="color9edbed svgShape"></path><path fill="#af6640" d="M1241.83,1620.78s-18.28,80.89,48.31,80.89h500.73c51.57,0,57.78,70.77,27.42,158.83s-85.2,258.64-85.2,258.64h35.26s78.44-229.44,91.07-255.7,70.5-201.56-30-232.87S1241.83,1620.78,1241.83,1620.78Z" class="coloraf6640 svgShape"></path><rect width="810.22" height="113.9" x="1004.73" y="2084.57" fill="#7f393c" class="color7f393c svgShape"></rect><polygon fill="#7f393c" points="1080.12 1991.62 932.6 2687.29 962.96 2687.29 1167.95 1991.62 1080.12 1991.62" class="color7f393c svgShape"></polygon><polygon fill="#7f393c" points="1297.52 1991.62 1150 2687.29 1180.36 2687.29 1385.35 1991.62 1297.52 1991.62" class="color7f393c svgShape"></polygon><polygon fill="#7f393c" points="1739.92 1991.62 1887.44 2687.29 1857.09 2687.29 1652.09 1991.62 1739.92 1991.62" class="color7f393c svgShape"></polygon><polygon fill="#7f393c" points="1522.53 1991.62 1670.05 2687.29 1639.69 2687.29 1434.7 1991.62 1522.53 1991.62" class="color7f393c svgShape"></polygon><path fill="#985f33" d="M914.34,1949.47s-152.13-333.9-193.91-560.9S822.27,1095,1041.63,1085.9s402.48,38.81,440.67,127.85,49,622.29,49,622.29S964.61,1991.22,914.34,1949.47Z" class="color985f33 svgShape"></path><path fill="#804f28" d="M861,1180c30.65,86.54,59.75,173.7,83.59,262.38,23.76,88.41,42.34,178.43,51.21,269.62A1169.12,1169.12,0,0,1,1000.9,1865c-.14,4.09,6.23,4.09,6.37,0,3.1-91.41-5.61-182.84-22-272.72-16.48-90.24-40.6-178.93-68.27-266.33-15.67-49.51-32.51-98.63-49.85-147.58-1.35-3.83-7.51-2.18-6.13,1.69Z" class="color804f28 svgShape"></path><path fill="#985f33" d="M937.17,1905.19c-42.33,19.36-31.12,167.42,33.52,198.73,50.38,24.41,233.66,16.86,414.66,15.22,234.28-2.12,364.75-5.77,429.6-7.17,86.7-1.88,121.07-218.52-38.22-251.14S1137.6,1813.54,937.17,1905.19Z" class="color985f33 svgShape"></path><path fill="#804f28" d="M919.4,1945.25c6.11-21.57,21.29-38.42,38.43-52.21,18.3-14.73,39-23.66,61.84-29,28.05-6.58,56.94-9.17,85.62-11.37,35.06-2.69,70.18-4.59,105.31-6.23q69.92-3.27,139.9-5,80.05-2,160.14-2.22,10.32,0,20.62,0c4.1,0,4.1-6.35,0-6.36q-82.24-.1-164.48,1.84-72.62,1.66-145.18,4.87c-36.91,1.66-73.81,3.59-110.65,6.31-28,2.08-56.17,4.54-83.79,10-22.72,4.53-45.48,11.75-64.45,25.43-17.34,12.51-34,27.74-43.65,47.15a88.06,88.06,0,0,0-5.8,15.06c-1.11,4,5,5.63,6.14,1.69Z" class="color804f28 svgShape"></path><path fill="#11b2c0" d="M2627.8,1622.08v345.81c0,17.26,12.26,31.25,27.39,31.25H3461c15.13,0,27.39-14,27.39-31.25V1653.33c0-17.26-12.26-31.25-27.39-31.25Z" opacity=".3" class="color11b2c0 svgShape"></path><rect width="842.71" height="396.64" x="2613.44" y="1570.89" fill="#11b2c0" rx="8.31" class="color11b2c0 svgShape"></rect><rect width="112.06" height="79.99" x="2671.85" y="1605.96" fill="#5c509d" rx="6.28" class="color5c509d svgShape"></rect><rect width="112.06" height="79.99" x="2822.59" y="1605.96" fill="#6c7cba" rx="6.28" class="color6c7cba svgShape"></rect><rect width="112.06" height="79.99" x="2978.76" y="1605.96" fill="#8896ca" rx="6.28" class="color8896ca svgShape"></rect><rect width="112.06" height="79.99" x="3134.94" y="1605.96" fill="#a5b0d8" rx="6.28" class="colora5b0d8 svgShape"></rect><rect width="112.06" height="79.99" x="3291.11" y="1605.96" fill="#c2c8e5" rx="6.28" class="colorc2c8e5 svgShape"></rect><rect width="112.06" height="79.99" x="2669.13" y="1729.22" fill="#eb4647" rx="6.28" class="coloreb4647 svgShape"></rect><rect width="112.06" height="79.99" x="2819.88" y="1729.22" fill="#ee467b" rx="6.28" class="coloree467b svgShape"></rect><rect width="112.06" height="79.99" x="2976.05" y="1729.22" fill="#ee6c86" rx="6.28" class="coloree6c86 svgShape"></rect><rect width="112.06" height="79.99" x="3132.22" y="1729.22" fill="#f38ea4" rx="6.28" class="colorf38ea4 svgShape"></rect><rect width="112.06" height="79.99" x="3288.39" y="1729.22" fill="#f6b1c0" rx="6.28" class="colorf6b1c0 svgShape"></rect><rect width="112.06" height="79.99" x="2666.42" y="1852.48" fill="#f9a239" rx="6.28" class="colorf9a239 svgShape"></rect><rect width="112.06" height="79.99" x="2817.16" y="1852.48" fill="#f7c235" rx="6.28" class="colorf7c235 svgShape"></rect><rect width="112.06" height="79.99" x="2973.33" y="1852.48" fill="#f9ce62" rx="6.28" class="colorf9ce62 svgShape"></rect><rect width="112.06" height="79.99" x="3129.5" y="1852.48" fill="#f7da85" rx="6.28" class="colorf7da85 svgShape"></rect><rect width="112.06" height="79.99" x="3285.68" y="1852.48" fill="#f9e5ab" rx="6.28" class="colorf9e5ab svgShape"></rect><polygon fill="#2cb0db" points="3952.63 1158.52 3940.59 1158.52 3940.59 1150.48 3944.61 1150.48 3944.61 1146.48 3952.63 1146.48 3952.63 1158.52" class="color2cb0db svgShape"></polygon><path fill="#2cb0db" d="M3908.13,1150.49v8.07h16.25v-8.07Zm-32.54,0v8.07h16.25v-8.07Zm-32.48,0v8.07h16.24v-8.07Zm-32.54,0v8.07h16.29v-8.07Zm-32.49,0v8.07h16.24v-8.07Zm-32.49,0v8.07h16.25v-8.07Zm-32.53,0v8.07h16.24v-8.07Zm-32.44,0v8.07h16.19v-8.07Zm-32.54,0v8.07h16.3v-8.07Zm-32.48,0v8.07h16.24v-8.07Zm-32.49,0v8.07h16.24v-8.07Zm-32.54,0v8.07h16.24v-8.07Zm-32.49,0v8.07h16.25v-8.07Z" class="color2cb0db svgShape"></path><polygon fill="#2cb0db" points="3501.83 1158.52 3489.78 1158.52 3489.78 1146.48 3497.81 1146.48 3497.81 1150.48 3501.83 1150.48 3501.83 1158.52" class="color2cb0db svgShape"></polygon><path fill="#2cb0db" d="M3489.78,1114v16.23h8V1114Zm0-32.46v16.23h8v-16.23Zm0-32.51v16.28h8V1049Zm0-32.46v16.23h8v-16.23Zm0-32.46v16.23h8V984.11Zm0-32.51v16.28h8V951.6Zm0-32.41v16.18h8V919.19Zm0-32.46V903h8V886.73Zm0-32.51v16.23h8V854.22Zm0-32.46V838h8V821.76Zm0-32.52v16.29h8V789.24Zm0-32.45V773h8V756.79Zm0-32.46v16.22h8V724.33Z" class="color2cb0db svgShape"></path><polygon fill="#2cb0db" points="3497.81 708.08 3489.78 708.08 3489.78 696.04 3501.83 696.04 3501.83 704.07 3497.81 704.07 3497.81 708.08" class="color2cb0db svgShape"></polygon><path fill="#2cb0db" d="M3908.13,696.05v8h16.25v-8Zm-32.54,0v8h16.25v-8Zm-32.48,0v8h16.24v-8Zm-32.54,0v8h16.29v-8Zm-32.49,0v8h16.24v-8Zm-32.49,0v8h16.25v-8Zm-32.53,0v8h16.24v-8Zm-32.44,0v8h16.19v-8Zm-32.54,0v8h16.3v-8Zm-32.48,0v8h16.24v-8Zm-32.49,0v8h16.24v-8Zm-32.54,0v8h16.24v-8Zm-32.49,0v8h16.25v-8Z" class="color2cb0db svgShape"></path><polygon fill="#2cb0db" points="3952.63 708.08 3944.61 708.08 3944.61 704.07 3940.59 704.07 3940.59 696.04 3952.63 696.04 3952.63 708.08" class="color2cb0db svgShape"></polygon><path fill="#2cb0db" d="M3944.6,1114v16.23h8.07V1114Zm0-32.46v16.23h8.07v-16.23Zm0-32.51v16.28h8.07V1049Zm0-32.46v16.23h8.07v-16.23Zm0-32.46v16.23h8.07V984.11Zm0-32.51v16.28h8.07V951.6Zm0-32.41v16.18h8.07V919.19Zm0-32.46V903h8.07V886.73Zm0-32.51v16.23h8.07V854.22Zm0-32.46V838h8.07V821.76Zm0-32.52v16.29h8.07V789.24Zm0-32.45V773h8.07V756.79Zm0-32.46v16.22h8.07V724.33Z" class="color2cb0db svgShape"></path><path fill="#de333d" d="M3856.46,1062.36l-84.22-202.51-16.09-38.76-15.21-36.6h-37.61l-116.91,277.87H3564.9v7.71H3635v-7.71h-34.35l35.28-87.4h90.79l33.47,87.4h-32.53v7.71h149.86v-7.71Zm-216.4-96.24,43.1-106,39.88,106Z" class="colorde333d svgShape"></path><rect width="31.71" height="31.74" x="3477.94" y="1138.63" fill="#2cb0db" transform="rotate(90 3493.79 1154.5)" class="color2cb0db svgShape"></rect><path fill="#2cb0db" d="M3475.61,1136.28v36.39H3512v-36.39Zm31.71,31.73h-27.05v-27h27.05Z" class="color2cb0db svgShape"></path><rect width="31.71" height="31.74" x="3477.94" y="911.41" fill="#2cb0db" transform="rotate(90 3493.795 927.275)" class="color2cb0db svgShape"></rect><path fill="#2cb0db" d="M3475.61,909.11v36.34H3512V909.11Zm31.71,31.69h-27.05v-27h27.05Z" class="color2cb0db svgShape"></path><rect width="31.71" height="31.74" x="3477.94" y="684.18" fill="#2cb0db" transform="rotate(90 3493.795 700.055)" class="color2cb0db svgShape"></rect><path fill="#2cb0db" d="M3475.61,681.89v36.39H3512V681.89Zm31.71,31.69h-27.05v-27h27.05Z" class="color2cb0db svgShape"></path><rect width="31.71" height="31.74" x="3932.76" y="1138.63" fill="#2cb0db" transform="rotate(90 3948.62 1154.5)" class="color2cb0db svgShape"></rect><path fill="#2cb0db" d="M3930.43,1136.28v36.39h36.37v-36.39Zm31.76,31.73H3935v-27h27.16Z" class="color2cb0db svgShape"></path><rect width="31.71" height="31.74" x="3932.76" y="911.41" fill="#2cb0db" transform="rotate(90 3948.615 927.275)" class="color2cb0db svgShape"></rect><path fill="#2cb0db" d="M3930.43,909.11v36.34h36.37V909.11Zm31.76,31.69H3935v-27h27.16Z" class="color2cb0db svgShape"></path><rect width="31.71" height="31.74" x="3932.76" y="684.18" fill="#2cb0db" transform="rotate(90 3948.615 700.055)" class="color2cb0db svgShape"></rect><path fill="#2cb0db" d="M3930.43,681.89v36.39h36.37V681.89Zm31.76,31.69H3935v-27h27.16Z" class="color2cb0db svgShape"></path><rect width="31.71" height="31.74" x="3705.35" y="684.18" fill="#2cb0db" transform="rotate(90 3721.215 700.055)" class="color2cb0db svgShape"></rect><path fill="#2cb0db" d="M3703.07,681.89v36.39h36.32V681.89Zm31.71,31.69h-27.1v-27h27.1Z" class="color2cb0db svgShape"></path><rect width="31.71" height="31.74" x="3705.35" y="1138.63" fill="#2cb0db" transform="rotate(90 3721.21 1154.5)" class="color2cb0db svgShape"></rect><path fill="#2cb0db" d="M3703.07,1136.28v36.39h36.32v-36.39Zm31.71,31.73h-27.1v-27h27.1Z" class="color2cb0db svgShape"></path><polygon fill="#e9a59a" fill-rule="evenodd" points="2031.31 2434.51 2150.09 2336.57 2283.74 2520.6 2167.21 2613.73 2031.31 2434.51" class="colore9a59a svgShape"></polygon><path fill="#f48121" fill-rule="evenodd" d="M2221.74,2660.65c75.74-58.58,151.88-121.07,227.86-181.48,11.69-9.33,9.58-28.11-4.22-33.76-.05,0-.15,0-.21-.09-1.23-.48-2.45-1-3.73-1.39-24.2-8.29-47.78-3.46-71.94,5.52-34.13,12.64-72.41,29.72-105.78,19.49-9.33-2.86-18.31-8-29.82-13.75-4.59,4.17-22,17.43-23.29,28.72-1.45,11.72,8.7,20.9,19,34.79-33.55,24.37-67.66-.74-105.36,40.46,16.21,28.76,38,58.17,61.46,87.82l8.2,10.31A20.07,20.07,0,0,0,2221.74,2660.65Z" class="colorf48121 svgShape"></path><path fill="#ffffff" fill-rule="evenodd" d="M2248.73 2507.79c6.23 3.24 13.35-12.22 21.21-20.83 4.61-5.08 17.63-14.73 14.69-20.32-5.18-10-23.86 5.5-30.25 13.93C2248.21 2488.76 2239.59 2503.08 2248.73 2507.79zM2277.16 2517c9.37 2.5 16.2-14.72 23.53-23.79 3.85-4.76 8.57-9.61 12.65-13.88 3.92-4.07 12.4-10 9.19-13.58-6.93-7.64-20.62 2.26-29 10.69C2282.84 2487.08 2263.24 2513.32 2277.16 2517z" class="colorfff svgShape"></path><path fill="#fdbe3b" d="M2339.48 2460.63c10.21-3.6 20.33-7.56 30.05-11.19 25.4-9.4 50.19-14.28 75.63-4.12l.26.11c13.8 5.65 15.87 24.42 4.2 33.7-32.49 25.84-65 52.08-97.57 78.22C2325.82 2520.1 2329.57 2485.49 2339.48 2460.63zM2260.12 2630.62q-19.22 15.12-38.41 30a20 20 0 01-27.76-3.36c-15.36-19.11-30.17-38.17-43.45-57.06C2174.1 2594.22 2219.11 2590.53 2260.12 2630.62z" class="colorfdbe3b svgShape"></path><path fill="#ca5d28" d="M2221.74,2660.65c75.74-58.58,151.88-121.07,227.86-181.48,11.69-9.33,9.58-28.11-4.22-33.76-.05,0-.15,0-.21-.09-1.23-.48-2.45-1-3.73-1.39-3.43,8-15.69,24.55-59.62,62.77-58.4,50.76-151.31,123.41-196.08,140.28l8.2,10.31A20.07,20.07,0,0,0,2221.74,2660.65Z" class="colorca5d28 svgShape"></path><polygon fill="#e9a59a" fill-rule="evenodd" points="1578.03 2485.33 1731.91 2491.44 1708.76 2717.63 1559.76 2709.44 1578.03 2485.33" class="colore9a59a svgShape"></polygon><path fill="#f48121" fill-rule="evenodd" d="M1569.1,2780.73c95.55,6.79,194,10.92,290.93,16.49,14.94.83,25.89-14.57,19.39-28,0-.08-.09-.14-.1-.21-.6-1.18-1.19-2.36-1.86-3.53-12.51-22.29-33.31-34.39-57.31-43.8-33.87-13.31-73.8-26.07-91.85-55.92-5-8.35-8.29-18.18-13.06-30.11-6.19.05-28-1.67-36.51,5.9-8.9,7.77-7.46,21.37-9,38.6-41.26-4.18-49.94-45.62-105.53-40-7.11,32.24-10.51,68.65-12.78,106.4q-.37,6.57-.76,13.14A20,20,0,0,0,1569.1,2780.73Z" class="colorf48121 svgShape"></path><path fill="#ffffff" fill-rule="evenodd" d="M1691.21 2684.77c2.48 6.56 18.1-.21 29.71-1.4 6.82-.72 23 .76 24.5-5.37 2.84-10.94-21.45-11.78-31.84-9.76C1703.52 2670.23 1687.54 2675.17 1691.21 2684.77zM1706.24 2710.58c5.33 8.1 21.91-.19 33.42-2.07 6-1 12.8-1.46 18.69-1.92 5.64-.43 15.93.79 15.91-4-.07-10.31-16.88-12.05-28.76-11.35C1730.46 2692.05 1698.33 2698.55 1706.24 2710.58z" class="colorfff svgShape"></path><path fill="#fdbe3b" d="M1790.32,2710.05c10,4.12,20.2,7.91,29.86,11.68,25.2,9.91,47,22.78,59.12,47.3l.13.25c6.51,13.4-4.46,28.78-19.35,27.93-41.46-2.38-83.21-4.49-124.92-6.69C1740.46,2745.29,1766.34,2722,1790.32,2710.05Z" class="colorfdbe3b svgShape"></path><path fill="#f9c854" d="M1617.75,2783.91q-24.42-1.53-48.65-3.21a20,20,0,0,1-18.45-21c1.29-24.47,3-48.54,5.68-71.47C1577.91,2699.49,1613.93,2726.71,1617.75,2783.91Z" class="colorf9c854 svgShape"></path><path fill="#ca5d28" d="M1569.1,2780.73c95.55,6.79,194,10.92,290.93,16.49,14.94.83,25.89-14.57,19.39-28,0-.08-.09-.14-.1-.21-.6-1.18-1.19-2.36-1.86-3.53-7.87,3.66-28.07,7.85-86.32,7.08-77.39-1.05-195.12-8.78-239.75-26q-.37,6.57-.76,13.14A20,20,0,0,0,1569.1,2780.73Z" class="colorca5d28 svgShape"></path><path fill="#f9a12a" d="M1961.82,1085.4,1990,1247.27s-151.43,117.07-275.89,123.19-195.58-53.56-195.58-53.56L1552,989s123.17,114.69,179.56,138.36S1961.82,1085.4,1961.82,1085.4Z" class="colorf9a12a svgShape"></path><path fill="#ea635d" d="M2162.54,1018.31s40.43,24.06,29.17,48-48.41,44.84-48.41,44.84l-48.42-6.7-19.62-19.16Z" class="colorea635d svgShape"></path><path fill="#fbaf29" d="M1073.38,1218.59a1048,1048,0,0,1,92.4-182.27c44.57-69.94,98.07-125,186.74-118.21,113.89,8.71,206,88.88,212.52,203.61,10.38,183.59-73.88,176.68,28.56,550.93a72.75,72.75,0,0,1,2.41,15.24c1,18.66-4.87,38.12-18.12,50.73-10.8,10.28-25.56,13.5-40.83,14a222.64,222.64,0,0,1-23.75-.76l-370.11-27.44c-22.38-9.43-45.59-26.16-37.07-53.78,15.38-49.83,246.82-78.58,246.82-78.58s-149.75-10.18-254.43-34.8c-81.22-19.11-93.08-33-94.31-38.21A1051.9,1051.9,0,0,1,1023,1388.41,1066,1066,0,0,1,1073.38,1218.59Z" class="colorfbaf29 svgShape"></path><path fill="#f48121" d="M1098.52,1557.28c104.68,24.62,254.43,34.8,254.43,34.8s-231.44,28.75-246.82,78.58c-8.52,27.62,14.69,44.35,37.07,53.78l-42.83-3.18c-24.2-1.79-50-4.2-68.95-19.4-26.27-21.1-30.22-59-30.49-92.72q-.36-45.09,3.28-90.07C1005.44,1524.32,1017.3,1538.17,1098.52,1557.28Z" class="colorf48121 svgShape"></path><path fill="#fbaf29" d="M1352.52,918.11c-77.73-7.4,212.52,203.61,212.52,203.61S1576.61,939.44,1352.52,918.11Z" class="colorfbaf29 svgShape"></path><path fill="#ffffff" d="M1532.43,1055.72,1521,1111.39S1323.7,942.84,1344.68,918.24s41.81-26,41.81-26,102.78,27,143.89,79.25,31.78,111.65,31.78,111.65Z" class="colorfff svgShape"></path><path fill="#faba97" d="M1384.88,902.26s47.92,137.56,147.55,153.46c0,0,20-32.42,1.58-69.44S1384.88,902.26,1384.88,902.26Z" class="colorfaba97 svgShape"></path><path fill="#ffffff" d="M1594,790.32l-129.45-20.65c-8.17-1.3-4.57-13.65,3.51-12.37L1597.49,778c8.17,1.3,4.57,13.65-3.51,12.36Z" class="colorfff svgShape"></path><path fill="#d51c5c" d="M1150.13,1793l381.18-40.8,5.75.41,210.56,8.38a340.54,340.54,0,0,1,272,154.64l231.57,457.09L2012,2482l-301.23-400.78-355.69-14.76a274.82,274.82,0,0,1-35.11-3.72C1116.12,2025,1150.13,1793,1150.13,1793Z" class="colord51c5c svgShape"></path><path fill="#b2114c" d="M1531.31,1752.23,1150.13,1793s-34,232,169.81,269.66c-140.21-24-240.91-153.93-224.38-299.14l4.81-42.29Z" class="colorb2114c svgShape"></path><path fill="#b2114c" d="M2152.17,2422.6,2046,2264.76,1886.34,2027.5c-13.84-20.57-26.94-42.82-43.92-61A187.84,187.84,0,0,0,1719,1907.66c-7.81-.54-15.65-.82-23.47-1.21l-276.52-13.88c-27.91-1.4-57.75-.33-85.29-5.91-37.32-7.55-70.38-31.22-90.07-63.71-12.74-21-18.36-46-25.47-69.28l-6.78-22.18c-2.42-7.93,10.09-11,12.5-3.06l17,55.78c10.46,34.27,32.31,62.87,64.66,79.23,30.45,15.39,65.92,13.89,99.18,15.55l280.65,14.09c9.69.48,19.4.94,29.09,1.46,34.49,1.86,68.08,11.93,97.39,30.32,32.5,20.38,54,49.34,74.83,80.32l150,223c41.49,61.68,84.92,122.47,124.66,185.29.65,1,1.37,2,2.05,3,4.61,6.86-6.72,13-11.31,6.13Z" class="colorb2114c svgShape"></path><path fill="#b2114c" d="M1331.94,1737.9s21,86.24-43.27,123.07c0,0-21.82-11.66-43.52-48.55L1217.69,1730Z" class="colorb2114c svgShape"></path><path fill="#ee467b" d="M2245.2,2306.4l32.09,60.2c4.71,8.94,2.6,21.74-6.71,25.68L2013.51,2495c-7.66,3.24-17.76-.9-22.36-7.82l-40.74-61.53a17.26,17.26,0,0,1,8.14-25.65l265.12-101.68A17.3,17.3,0,0,1,2245.2,2306.4Z" class="coloree467b svgShape"></path><polygon fill="#b2114c" points="1319.94 2062.69 1775.89 2186.07 1772.47 2163.3 1710.74 2081.17 1319.94 2062.69" class="colorb2114c svgShape"></polygon><polygon fill="#d51c5c" points="1775.89 2186.07 1799.03 2565.72 1547.91 2521.29 1514.09 2115.23 1775.89 2186.07" class="colord51c5c svgShape"></polygon><path fill="#b2114c" d="M1646.27,2119.45l11.4,143q9.11,114.15,18.2,228.3,2.12,26.44,4.22,52.88c.66,8.26-12.21,8-12.86-.2q-5.7-71.52-11.41-143-9.09-114.15-18.2-228.3-2.1-26.43-4.22-52.88c-.65-8.25,12.22-8,12.87.21Z" class="colorb2114c svgShape"></path><path fill="#ee467b" d="M1806,2547.56l-265.46-38.29a20.66,20.66,0,0,0-23.62,21l1.43,53.24c.28,10.12,12.6,29.64,22.63,31l260.71,26.8c11.88,1.6,20.19-14,21-26l1-46A20.66,20.66,0,0,0,1806,2547.56Z" class="coloree467b svgShape"></path><path fill="#f9b189" d="M1740.45,1671.06s7.66-110.11-36.08-144.21-194-31.87-194-31.87l-38.76,78.91,266.44,116.34Z" class="colorf9b189 svgShape"></path><path fill="#ea635d" d="M1592.89,1626.84s-.47-38.22-7.27-41.55-62.63,10-62.63,10Z" class="colorea635d svgShape"></path><polygon fill="#ffca6f" points="1510.39 1494.98 1459.75 1598.07 1352.95 1592.08 1426.76 1441.83 1510.39 1494.98" class="colorffca6f svgShape"></polygon><path fill="#fbaf29" d="M1086.24,1187.17S977,1392.25,985.49,1472.33s113,85,113,85Z" class="colorfbaf29 svgShape"></path><path fill="#f48121" d="M1423.42,1447.33l-153.06-87.81-22-12.63c-3.21-1.84-3.67-5.77-2.16-8.83l76-154.64q5.41-11,10.85-22.08c3.64-7.43,14.62-.72,11,6.66l-76,154.64q-5.41,11-10.84,22.09-1.1-4.43-2.17-8.83l153.06,87.8,22,12.64c7.19,4.12.51,15.11-6.67,11Z" class="colorf48121 svgShape"></path><path fill="#f48121" d="M1253.2,1347.63l-132.51,35.54c-8,2.14-11-10.34-3.06-12.49l132.51-35.53c8-2.15,11.06,10.34,3.06,12.48Z" class="colorf48121 svgShape"></path><path fill="#f9b189" d="M2027,1080.48l27.12,87L2178.45,1125a18.74,18.74,0,0,0,12.57-19.87h0a18.75,18.75,0,0,0-21.11-16.43l-25.32,3.37a12.73,12.73,0,0,1-9.7-2.74h0a12.7,12.7,0,0,1-.36-19.41l16.5-14.45a12.55,12.55,0,0,1,4.71-2.61l79-23.8a16.15,16.15,0,0,0,10.39-21.35h0a16.15,16.15,0,0,0-16.72-10.17l-64.07,5.44a153.92,153.92,0,0,0-84.35,34.17Z" class="colorf9b189 svgShape"></path><polygon fill="#ffca6f" points="1990.01 1247.27 2066.24 1206.36 2019.64 1055.05 1961.82 1085.4 1990.01 1247.27" class="colorffca6f svgShape"></polygon><path fill="#453b5d" d="M2185.72,1384.36H1734.24a13,13,0,0,0-12,8.11l-154.78,383.11h479.45l150.86-373.41A13,13,0,0,0,2185.72,1384.36Z" class="color453b5d svgShape"></path><path fill="#453b5d" d="M1320.87,1749.75h309.71a0,0,0,0,1,0,0v25.83a0,0,0,0,1,0,0H1318a0,0,0,0,1,0,0v-22.94A2.89,2.89,0,0,1,1320.87,1749.75Z" class="color453b5d svgShape"></path><path fill="#8b75b4" d="M1600.05,1763.6q29.31-72.7,58.63-145.39l61.84-153.34,15.76-39.07c5-12.45,8.34-28.57,21.42-34.88,4.09-2,.52-8.05-3.56-6.09-11.71,5.64-15.51,16.38-20.06,27.66l-14.15,35.09L1689.12,1524q-31.66,78.52-63.34,157.06-16.27,40.35-32.54,80.69c-1.7,4.21,5.13,6,6.81,1.88Z" class="color8b75b4 svgShape"></path><path fill="#8b75b4" d="M1579.63 1755.65a18.93 18.93 0 013.33.77c.28.08.55.18.81.28s.78.33.22.08c.53.24 1 .48 1.55.76a23.24 23.24 0 012.91 1.87c-.63-.47.06.06.2.17l.65.57c.47.42.92.86 1.35 1.31s.78.85 1.14 1.3c.09.11.19.22.27.33l-.11-.14c.16.24.33.46.5.7a21.84 21.84 0 011.69 2.93c0 .09.42.93.22.47s.15.38.18.48c.19.51.36 1 .5 1.57s.26 1.05.35 1.59l.06.4c-.06-.45-.07-.54 0-.27s0 .62.07.94a3.53 3.53 0 007.06 0c-.58-11.07-10-21.35-21-22.91-1.82-.26-3.88.44-4.34 2.46-.38 1.67.51 4.06 2.46 4.34zM1901.61 1622.76c-11.24 0-20.52-4.33-26.1-12.19-5.92-8.33-6.94-19.91-2.8-31.77 8-23 33.31-41.62 56.36-41.62 11.24 0 20.51 4.33 26.1 12.19 5.92 8.33 6.94 19.91 2.8 31.76h0C1949.94 1604.09 1924.66 1622.76 1901.61 1622.76zm27.46-78.53c-20.29 0-42.59 16.56-49.7 36.9-3.43 9.81-2.75 18.82 1.9 25.35 4.22 6 11.45 9.23 20.34 9.23 20.28 0 42.58-16.56 49.7-36.91 3.42-9.81 2.75-18.81-1.9-25.35C1945.19 1547.51 1938 1544.23 1929.07 1544.23z" class="color8b75b4 svgShape"></path><path fill="#22192b" d="M1510.05,624.85s-102.2-40.1-98.94,105.58l26.61,22.73,50.47,2Z" class="color22192b svgShape"></path><path fill="#faba97" d="M1566.85,832.79l-50,137.83s-18.15,1.71-65.3-11.36c-39.65-11-57.43-33-57.43-33l55.93-154.32Z" class="colorfaba97 svgShape"></path><polygon fill="#f5927e" points="1516.66 971.31 1457.12 863.94 1531 931.74 1516.66 971.31" class="colorf5927e svgShape"></polygon><path fill="#faba97" d="M1703.27,727.45,1637.85,908a26.08,26.08,0,0,1-17.61,16.24l-61.57,16.72a25.83,25.83,0,0,1-24.43-5.94l-77.51-71.08a26.08,26.08,0,0,1-6.87-28.08l71.36-210.21Z" class="colorfaba97 svgShape"></path><path fill="#f08372" d="M1670.31,818.38l-25.76,71.09a37.81,37.81,0,1,1,25.76-71.09Z" opacity=".32" class="colorf08372 svgShape"></path><path fill="#de7360" d="M1584,830.45l27.42,9.91a2.89,2.89,0,0,0,3.8-2l20-80a2.9,2.9,0,0,0-5.63-1.41l-19.22,76.92L1586,825a2.9,2.9,0,1,0-2,5.46Z" class="colorde7360 svgShape"></path><ellipse cx="1437.97" cy="766.87" fill="#faba97" rx="47.89" ry="47.85" class="colorfaba97 svgShape"></ellipse><path fill="#0e0d0b" d="M1602.71 730.8c-3.94 10.29-40.66 4.64-39-5.44C1566.53 708.62 1609 714.51 1602.71 730.8zM1691 770.53c-7.75 6.55-34.86-14.29-29-21.68C1671.7 736.59 1703.29 760.16 1691 770.53z" class="color0e0d0b svgShape"></path><ellipse cx="1518.97" cy="801.15" fill="#f08372" opacity=".32" rx="37.82" ry="37.85" transform="rotate(-89.89 1518.953 801.158)" class="colorf08372 svgShape"></ellipse><path fill="#281c1c" d="M1585.3 769.87c-2.77 7.11-8.37 11.58-12.52 10s-5.26-8.69-2.5-15.8 8.37-11.57 12.52-10S1588.06 762.76 1585.3 769.87zM1660 796.86c-2.77 7.11-8.37 11.57-12.52 10s-5.26-8.68-2.5-15.79 8.37-11.57 12.52-10S1662.8 789.75 1660 796.86z" class="color281c1c svgShape"></path><path fill="#de7360" d="M1438,797.12a2.85,2.85,0,0,0,2.53-.27c5.55-3.47,10.29-8.93,14.1-16.24,11.24-21.59-6.81-38.32-17.92-44.15a2.9,2.9,0,0,0-2.7,5.14c1.14.6,26.83,14.5,15.46,36.33-3.32,6.38-7.36,11.09-12,14a2.9,2.9,0,0,0-.92,4A2.84,2.84,0,0,0,1438,797.12Z" class="colorde7360 svgShape"></path><path fill="#de7360" d="M1451,782a2.9,2.9,0,0,0,3.82-3.4c-4.16-17.54-18.9-19-26.11-17.28a2.9,2.9,0,0,0,1.32,5.65c1.57-.35,15.35-3,19.13,13A2.91,2.91,0,0,0,1451,782Z" class="colorde7360 svgShape"></path><path d="M1548,863.54a27,27,0,0,0,1.65,4.38C1554.1,877.31,1564,885,1575,887.1a33.68,33.68,0,0,0,14.33-.39c7.32-1.9,13.71-6.14,17.23-12.07,2-3.4,2.9-8.25-.44-11.23a10,10,0,0,0-2.67-1.54,36.6,36.6,0,0,0-5.66-1.14,80.88,80.88,0,0,1-29.41-10.24,29.68,29.68,0,0,0-9.36-4c-3-.58-5.64-.23-7.71,1.61C1547.06,851.82,1546.55,858,1548,863.54Z" fill="#000000" class="color000 svgShape"></path><path fill="#ffffff" d="M1559,846.49c-.76,2.53-1.07,5.19,0,7.49,1.11,2.57,3.49,4.26,5.89,5.62a68,68,0,0,0,28.33,9.31c2.37.22,5,.26,7-1s2.84-3.63,3.3-6a36.6,36.6,0,0,0-5.66-1.14,80.88,80.88,0,0,1-29.41-10.24A29.68,29.68,0,0,0,1559,846.49Z" class="colorfff svgShape"></path><path fill="#d66b5e" d="M1549.63,867.92C1554.1,877.31,1564,885,1575,887.1a33.68,33.68,0,0,0,14.33-.39c-2-6-7.34-10.83-13.08-14C1568.2,868.29,1558.59,866.25,1549.63,867.92Z" class="colord66b5e svgShape"></path><path fill="#22192b" d="M1675.73,804.77c10.93-31.42,5.73-56.51,3.94-83.1-29.24-.47-58.36-11.13-73.46-33-23.48,8-72.09-9.59-80.12-25.82-13.81,46-25.76,84.6-55.88,114.61,1.13-52,6.65-54.84-6.67-110.29,4.81-13,23.93-38.7,42-33.07a143.3,143.3,0,0,1,16-29.42c7.21-9.91,15.9-18.62,26.41-24.95,20-12.14,47.21-14.17,68.19,1.65,13.61-2.4,27.58-3.86,41.25-1.68s27.07,8.28,35.94,18.83,12.58,26,6.93,37.9A49,49,0,0,1,1727,670a41.47,41.47,0,0,1,.38,16c-1.54,9.56-6.6,18.82-16.58,25.92C1710.46,742.61,1700.56,768.09,1675.73,804.77Z" class="color22192b svgShape"></path><path fill="#3b3246" d="M1727.44,685.92a68.37,68.37,0,0,0-9.25-17.62A69.56,69.56,0,0,0,1673,641.09c2-17.81-10.54-30.55-25.15-35.72s-30.88-3.93-45.93-.08c-12.63-15.46-35.73-19.42-54.71-13.8-9.33,2.74-17.85,7.48-25.71,13.12,7.21-9.91,15.9-18.62,26.41-25,20-12.14,47.21-14.17,68.2,1.66,13.6-2.41,27.57-3.87,41.24-1.69s27.07,8.28,35.94,18.83,12.58,25.95,6.93,37.9A49,49,0,0,1,1727,669.92,39.86,39.86,0,0,1,1727.44,685.92Z" class="color3b3246 svgShape"></path><path fill="#22192b" d="M1511.27,625.66s11-44.32,7.44-50.39-16,.13-12.44,42.69c0,0-24.61-21.61-23.6-13.87s28.18,27.68,28.18,27.68Z" class="color22192b svgShape"></path><ellipse cx="3339.42" cy="2667.1" fill="#55bdae" rx="184.35" ry="23.31" class="color55bdae svgShape"></ellipse><path fill="#296a36" d="M3446.26 2062.24s62.4-115.35 152.89-81c0 0-67.09 71.7-49.92 159s-48.37 146.53-48.37 146.53-109.21 35.85-113.89 31.17-25-120-25-120zM3202.71 2212.74s-43.51-91.26 4.85-228.44c0 0 4.68-26.5 1.56-48.32 0 0 88.93 40.53 98.29 132.5s6.24 255.65 6.24 255.65l-120.13-65.47z" class="color296a36 svgShape"></path><path fill="#409968" d="M3315.32,2415.11c-40.93,3.08-75.18-6.64-103.8-24.39-115.5-71.41-139.6-272.82-141.26-287.95,1,4.65,12.4,29.27,132.45,110q15,10.1,27.49,20.47s.14.12.43.33C3335.25,2320.11,3315.32,2415.11,3315.32,2415.11Z" class="color409968 svgShape"></path><path fill="#639e67" d="M3297,2397.22c-50.48-11.75-104.51-64.91-160.6-158a1116.89,1116.89,0,0,1-69.09-136.13l5.82-2.37a1112.34,1112.34,0,0,0,68.7,135.33c54.38,90.26,108.53,143.89,156.59,155.07Z" class="color639e67 svgShape"></path><path fill="#317f55" d="M3315.32,2415.11c-40.93,3.08-75.18-6.64-103.8-24.39,23-54.35,18.68-157.51,18.68-157.51s.14.12.43.33C3335.25,2320.11,3315.32,2415.11,3315.32,2415.11Z" class="color317f55 svgShape"></path><path fill="#30884a" d="M3621.87,2117.49c-.45,2.82-2.07,12.58-5.29,27v0c-17,76.25-78.55,281.41-244,260.85,0,0-2.79-17.61,2.79-43.94,8.19-38.73,34.5-96.38,114.54-144.73C3608.66,2144.91,3620.67,2121.87,3621.87,2117.49Z" class="color30884a svgShape"></path><path fill="#709244" d="M3385.26,2401.46l-1.83-6c75.16-22.87,133.7-93,169.57-147.76,39-59.6,60.43-114.49,60.65-115l5.86,2.26c-.21.55-21.81,56-61.18,116.12C3521.88,2306.72,3462.26,2378,3385.26,2401.46Z" class="color709244 svgShape"></path><path fill="#22703b" d="M3616.58,2144.46v0c-17,76.25-78.55,281.41-244,260.85,0,0-2.79-17.61,2.79-43.94h.17C3513.19,2368.77,3616.58,2144.46,3616.58,2144.46Z" class="color22703b svgShape"></path><path fill="#85a33d" d="M3363.68,2412.68c-4.09,7.1-64.52-18-91.74-90.58h0c-16.35-43.6-20.71-104.36,6.3-185.53,71-213.2,41.72-253.39,40.85-254.52,1.42.67,63.09,31.27,102.86,105.71l.17.29C3465.84,2070.16,3482.91,2205.48,3363.68,2412.68Z" class="color85a33d svgShape"></path><path fill="#9eb944" d="M3361.41,2417.16a4.77,4.77,0,0,1-1.93-.4c-4.48-1.9-16.37-7,13.75-196.68,18.08-113.82,1.71-199.14-15.2-250.68-18.33-55.83-41.22-85.14-41.45-85.43l4.92-3.9c1,1.21,23.7,30.26,42.39,87,17.2,52.24,33.85,138.71,15.55,254-27.09,170.58-19.13,188.25-17.26,190.06a1,1,0,0,0-.8-.25l4.8,3.7A6.21,6.21,0,0,1,3361.41,2417.16Z" class="color9eb944 svgShape"></path><path fill="#718c33" d="M3363.68,2412.68c-4.09,7.1-64.52-18-91.74-90.58,152.35,43.25,150-334.34,150-334.34l.17.29C3465.84,2070.16,3482.91,2205.48,3363.68,2412.68Z" class="color718c33 svgShape"></path><path fill="#008268" d="M3070.17,2101.88s0,.24.07.75A1.94,1.94,0,0,1,3070.17,2101.88Z" class="color008268 svgShape"></path><path fill="#f4c358" d="M3480.79,2409.51v170.41a90.3,90.3,0,0,1-90.34,90.27h-80.21a90.25,90.25,0,0,1-77.15-43.3h0a89.92,89.92,0,0,1-13.17-47V2409.51Z" class="colorf4c358 svgShape"></path><rect width="293.17" height="22.11" x="3203.76" y="2387.4" fill="#f47f2e" rx="1.26" class="colorf47f2e svgShape"></rect><path fill="#f4b54e" d="M3480.79,2409.51v170.41a90.3,90.3,0,0,1-90.34,90.27h-80.21a90.25,90.25,0,0,1-77.15-43.3c191.08,60,232.58-80.43,225.19-136.11s-76.21-81.27-76.21-81.27Z" class="colorf4b54e svgShape"></path></g></svg>